G04 #@! TF.GenerationSoftware,KiCad,Pcbnew,8.0.8*
G04 #@! TF.CreationDate,2025-03-21T10:39:09+00:00*
G04 #@! TF.ProjectId,ESP8266adapt_PCB01,45535038-3236-4366-9164-6170745f5043,rev?*
G04 #@! TF.SameCoordinates,Original*
G04 #@! TF.FileFunction,Copper,L1,Top*
G04 #@! TF.FilePolarity,Positive*
%FSLAX46Y46*%
G04 Gerber Fmt 4.6, Leading zero omitted, Abs format (unit mm)*
G04 Created by KiCad (PCBNEW 8.0.8) date 2025-03-21 10:39:09*
%MOMM*%
%LPD*%
G01*
G04 APERTURE LIST*
G04 #@! TA.AperFunction,ComponentPad*
%ADD10O,1.700000X1.700000*%
G04 #@! TD*
G04 #@! TA.AperFunction,ComponentPad*
%ADD11R,1.700000X1.700000*%
G04 #@! TD*
G04 #@! TA.AperFunction,Conductor*
%ADD12C,0.250000*%
G04 #@! TD*
G04 #@! TA.AperFunction,Conductor*
%ADD13C,0.750000*%
G04 #@! TD*
G04 APERTURE END LIST*
D10*
X72390000Y-129192000D03*
X72390000Y-126652000D03*
X72390000Y-124112000D03*
X72390000Y-121572000D03*
X72390000Y-119032000D03*
X72390000Y-116492000D03*
X72390000Y-113952000D03*
X72390000Y-111412000D03*
X72390000Y-108872000D03*
X72390000Y-106332000D03*
X72390000Y-103792000D03*
X72390000Y-101252000D03*
X72390000Y-98712000D03*
X72390000Y-96172000D03*
D11*
X72390000Y-93632000D03*
X49500000Y-93632000D03*
D10*
X49500000Y-96172000D03*
X49500000Y-98712000D03*
X49500000Y-101252000D03*
X49500000Y-103792000D03*
X49500000Y-106332000D03*
X49500000Y-108872000D03*
X49500000Y-111412000D03*
X49500000Y-113952000D03*
X49500000Y-116492000D03*
X49500000Y-119032000D03*
X49500000Y-121572000D03*
X49500000Y-124112000D03*
X49500000Y-126652000D03*
X49500000Y-129192000D03*
D11*
X46800000Y-93632000D03*
D10*
X46800000Y-96172000D03*
X46800000Y-98712000D03*
X46800000Y-101252000D03*
X46800000Y-103792000D03*
X46800000Y-106332000D03*
X46800000Y-108872000D03*
X46800000Y-111412000D03*
X46800000Y-113952000D03*
X46800000Y-116492000D03*
X46800000Y-119032000D03*
X46800000Y-121572000D03*
X46800000Y-124112000D03*
X46800000Y-126652000D03*
X46800000Y-129192000D03*
X75000000Y-129192000D03*
X75000000Y-126652000D03*
X75000000Y-124112000D03*
X75000000Y-121572000D03*
X75000000Y-119032000D03*
X75000000Y-116492000D03*
X75000000Y-113952000D03*
X75000000Y-111412000D03*
X75000000Y-108872000D03*
X75000000Y-106332000D03*
X75000000Y-103792000D03*
X75000000Y-101252000D03*
X75000000Y-98712000D03*
X75000000Y-96172000D03*
D11*
X75000000Y-93632000D03*
D12*
X47900000Y-93632000D02*
X49500000Y-93632000D01*
X46800000Y-93632000D02*
X47900000Y-93632000D01*
X48002081Y-96172000D02*
X49500000Y-96172000D01*
X46800000Y-96172000D02*
X48002081Y-96172000D01*
X48002081Y-98712000D02*
X49500000Y-98712000D01*
X46800000Y-98712000D02*
X48002081Y-98712000D01*
X48002081Y-101252000D02*
X49500000Y-101252000D01*
X46800000Y-101252000D02*
X48002081Y-101252000D01*
X46228000Y-103632000D02*
X47328000Y-103632000D01*
X48002081Y-103792000D02*
X49500000Y-103792000D01*
X46800000Y-103792000D02*
X48002081Y-103792000D01*
X46228000Y-106172000D02*
X47430081Y-106172000D01*
X48002081Y-106332000D02*
X49500000Y-106332000D01*
X46800000Y-106332000D02*
X48002081Y-106332000D01*
X46228000Y-108712000D02*
X47430081Y-108712000D01*
X48002081Y-108872000D02*
X49500000Y-108872000D01*
X46800000Y-108872000D02*
X48002081Y-108872000D01*
X46228000Y-111252000D02*
X47430081Y-111252000D01*
X48002081Y-111412000D02*
X49500000Y-111412000D01*
X46800000Y-111412000D02*
X48002081Y-111412000D01*
X46228000Y-113792000D02*
X47430081Y-113792000D01*
X48002081Y-113952000D02*
X49500000Y-113952000D01*
X46800000Y-113952000D02*
X48002081Y-113952000D01*
X46228000Y-121412000D02*
X47430081Y-121412000D01*
X48002081Y-121572000D02*
X49500000Y-121572000D01*
X46800000Y-121572000D02*
X48002081Y-121572000D01*
X48002081Y-124112000D02*
X49500000Y-124112000D01*
X46800000Y-124112000D02*
X48002081Y-124112000D01*
X73592081Y-124112000D02*
X75000000Y-124112000D01*
X72390000Y-124112000D02*
X73592081Y-124112000D01*
X73592081Y-121572000D02*
X75000000Y-121572000D01*
X72390000Y-121572000D02*
X73592081Y-121572000D01*
X73592081Y-119032000D02*
X75000000Y-119032000D01*
X72390000Y-119032000D02*
X73592081Y-119032000D01*
X73592081Y-116492000D02*
X75000000Y-116492000D01*
X72390000Y-116492000D02*
X73592081Y-116492000D01*
X73592081Y-113952000D02*
X75000000Y-113952000D01*
X72390000Y-113952000D02*
X73592081Y-113952000D01*
X73592081Y-111412000D02*
X75000000Y-111412000D01*
X72390000Y-111412000D02*
X73592081Y-111412000D01*
X73490000Y-93632000D02*
X75000000Y-93632000D01*
X72390000Y-93632000D02*
X73490000Y-93632000D01*
X46228000Y-116332000D02*
X47430081Y-116332000D01*
D13*
X46800000Y-116492000D02*
X49500000Y-116492000D01*
D12*
X46228000Y-118872000D02*
X47430081Y-118872000D01*
D13*
X46800000Y-119032000D02*
X49500000Y-119032000D01*
X46800000Y-126652000D02*
X49500000Y-126652000D01*
X46800000Y-129192000D02*
X49500000Y-129192000D01*
X72390000Y-129192000D02*
X75000000Y-129192000D01*
X72390000Y-126652000D02*
X75000000Y-126652000D01*
X72390000Y-108872000D02*
X75000000Y-108872000D01*
X72390000Y-106332000D02*
X75000000Y-106332000D01*
D12*
X73592081Y-103792000D02*
X75000000Y-103792000D01*
X72390000Y-103792000D02*
X73592081Y-103792000D01*
X73592081Y-101252000D02*
X75000000Y-101252000D01*
X72390000Y-101252000D02*
X73592081Y-101252000D01*
X73592081Y-98712000D02*
X75000000Y-98712000D01*
X72390000Y-98712000D02*
X73592081Y-98712000D01*
X73592081Y-96172000D02*
X75000000Y-96172000D01*
X72390000Y-96172000D02*
X73592081Y-96172000D01*
M02*
