G04 #@! TF.GenerationSoftware,KiCad,Pcbnew,8.0.8*
G04 #@! TF.CreationDate,2025-03-21T10:39:09+00:00*
G04 #@! TF.ProjectId,ESP8266adapt_PCB01,45535038-3236-4366-9164-6170745f5043,rev?*
G04 #@! TF.SameCoordinates,Original*
G04 #@! TF.FileFunction,Legend,Top*
G04 #@! TF.FilePolarity,Positive*
%FSLAX46Y46*%
G04 Gerber Fmt 4.6, Leading zero omitted, Abs format (unit mm)*
G04 Created by KiCad (PCBNEW 8.0.8) date 2025-03-21 10:39:09*
%MOMM*%
%LPD*%
G01*
G04 APERTURE LIST*
%ADD10C,0.400000*%
%ADD11C,0.150000*%
%ADD12C,0.120000*%
%ADD13O,1.700000X1.700000*%
%ADD14R,1.700000X1.700000*%
G04 APERTURE END LIST*
D10*
X58779642Y-124677333D02*
X58779642Y-123744000D01*
X59932023Y-123344000D02*
X59932023Y-124677333D01*
X59932023Y-124677333D02*
X57732023Y-124677333D01*
X57732023Y-124677333D02*
X57732023Y-123344000D01*
X59827262Y-122277333D02*
X59932023Y-121877333D01*
X59932023Y-121877333D02*
X59932023Y-121210667D01*
X59932023Y-121210667D02*
X59827262Y-120944000D01*
X59827262Y-120944000D02*
X59722500Y-120810667D01*
X59722500Y-120810667D02*
X59512976Y-120677333D01*
X59512976Y-120677333D02*
X59303452Y-120677333D01*
X59303452Y-120677333D02*
X59093928Y-120810667D01*
X59093928Y-120810667D02*
X58989166Y-120944000D01*
X58989166Y-120944000D02*
X58884404Y-121210667D01*
X58884404Y-121210667D02*
X58779642Y-121744000D01*
X58779642Y-121744000D02*
X58674881Y-122010667D01*
X58674881Y-122010667D02*
X58570119Y-122144000D01*
X58570119Y-122144000D02*
X58360595Y-122277333D01*
X58360595Y-122277333D02*
X58151071Y-122277333D01*
X58151071Y-122277333D02*
X57941547Y-122144000D01*
X57941547Y-122144000D02*
X57836785Y-122010667D01*
X57836785Y-122010667D02*
X57732023Y-121744000D01*
X57732023Y-121744000D02*
X57732023Y-121077333D01*
X57732023Y-121077333D02*
X57836785Y-120677333D01*
X59932023Y-119477333D02*
X57732023Y-119477333D01*
X57732023Y-119477333D02*
X57732023Y-118410666D01*
X57732023Y-118410666D02*
X57836785Y-118144000D01*
X57836785Y-118144000D02*
X57941547Y-118010666D01*
X57941547Y-118010666D02*
X58151071Y-117877333D01*
X58151071Y-117877333D02*
X58465357Y-117877333D01*
X58465357Y-117877333D02*
X58674881Y-118010666D01*
X58674881Y-118010666D02*
X58779642Y-118144000D01*
X58779642Y-118144000D02*
X58884404Y-118410666D01*
X58884404Y-118410666D02*
X58884404Y-119477333D01*
X58674881Y-116277333D02*
X58570119Y-116544000D01*
X58570119Y-116544000D02*
X58465357Y-116677333D01*
X58465357Y-116677333D02*
X58255833Y-116810666D01*
X58255833Y-116810666D02*
X58151071Y-116810666D01*
X58151071Y-116810666D02*
X57941547Y-116677333D01*
X57941547Y-116677333D02*
X57836785Y-116544000D01*
X57836785Y-116544000D02*
X57732023Y-116277333D01*
X57732023Y-116277333D02*
X57732023Y-115744000D01*
X57732023Y-115744000D02*
X57836785Y-115477333D01*
X57836785Y-115477333D02*
X57941547Y-115344000D01*
X57941547Y-115344000D02*
X58151071Y-115210666D01*
X58151071Y-115210666D02*
X58255833Y-115210666D01*
X58255833Y-115210666D02*
X58465357Y-115344000D01*
X58465357Y-115344000D02*
X58570119Y-115477333D01*
X58570119Y-115477333D02*
X58674881Y-115744000D01*
X58674881Y-115744000D02*
X58674881Y-116277333D01*
X58674881Y-116277333D02*
X58779642Y-116544000D01*
X58779642Y-116544000D02*
X58884404Y-116677333D01*
X58884404Y-116677333D02*
X59093928Y-116810666D01*
X59093928Y-116810666D02*
X59512976Y-116810666D01*
X59512976Y-116810666D02*
X59722500Y-116677333D01*
X59722500Y-116677333D02*
X59827262Y-116544000D01*
X59827262Y-116544000D02*
X59932023Y-116277333D01*
X59932023Y-116277333D02*
X59932023Y-115744000D01*
X59932023Y-115744000D02*
X59827262Y-115477333D01*
X59827262Y-115477333D02*
X59722500Y-115344000D01*
X59722500Y-115344000D02*
X59512976Y-115210666D01*
X59512976Y-115210666D02*
X59093928Y-115210666D01*
X59093928Y-115210666D02*
X58884404Y-115344000D01*
X58884404Y-115344000D02*
X58779642Y-115477333D01*
X58779642Y-115477333D02*
X58674881Y-115744000D01*
X57941547Y-114143999D02*
X57836785Y-114010666D01*
X57836785Y-114010666D02*
X57732023Y-113743999D01*
X57732023Y-113743999D02*
X57732023Y-113077333D01*
X57732023Y-113077333D02*
X57836785Y-112810666D01*
X57836785Y-112810666D02*
X57941547Y-112677333D01*
X57941547Y-112677333D02*
X58151071Y-112543999D01*
X58151071Y-112543999D02*
X58360595Y-112543999D01*
X58360595Y-112543999D02*
X58674881Y-112677333D01*
X58674881Y-112677333D02*
X59932023Y-114277333D01*
X59932023Y-114277333D02*
X59932023Y-112543999D01*
X57732023Y-110143999D02*
X57732023Y-110677332D01*
X57732023Y-110677332D02*
X57836785Y-110943999D01*
X57836785Y-110943999D02*
X57941547Y-111077332D01*
X57941547Y-111077332D02*
X58255833Y-111343999D01*
X58255833Y-111343999D02*
X58674881Y-111477332D01*
X58674881Y-111477332D02*
X59512976Y-111477332D01*
X59512976Y-111477332D02*
X59722500Y-111343999D01*
X59722500Y-111343999D02*
X59827262Y-111210666D01*
X59827262Y-111210666D02*
X59932023Y-110943999D01*
X59932023Y-110943999D02*
X59932023Y-110410666D01*
X59932023Y-110410666D02*
X59827262Y-110143999D01*
X59827262Y-110143999D02*
X59722500Y-110010666D01*
X59722500Y-110010666D02*
X59512976Y-109877332D01*
X59512976Y-109877332D02*
X58989166Y-109877332D01*
X58989166Y-109877332D02*
X58779642Y-110010666D01*
X58779642Y-110010666D02*
X58674881Y-110143999D01*
X58674881Y-110143999D02*
X58570119Y-110410666D01*
X58570119Y-110410666D02*
X58570119Y-110943999D01*
X58570119Y-110943999D02*
X58674881Y-111210666D01*
X58674881Y-111210666D02*
X58779642Y-111343999D01*
X58779642Y-111343999D02*
X58989166Y-111477332D01*
X57732023Y-107477332D02*
X57732023Y-108010665D01*
X57732023Y-108010665D02*
X57836785Y-108277332D01*
X57836785Y-108277332D02*
X57941547Y-108410665D01*
X57941547Y-108410665D02*
X58255833Y-108677332D01*
X58255833Y-108677332D02*
X58674881Y-108810665D01*
X58674881Y-108810665D02*
X59512976Y-108810665D01*
X59512976Y-108810665D02*
X59722500Y-108677332D01*
X59722500Y-108677332D02*
X59827262Y-108543999D01*
X59827262Y-108543999D02*
X59932023Y-108277332D01*
X59932023Y-108277332D02*
X59932023Y-107743999D01*
X59932023Y-107743999D02*
X59827262Y-107477332D01*
X59827262Y-107477332D02*
X59722500Y-107343999D01*
X59722500Y-107343999D02*
X59512976Y-107210665D01*
X59512976Y-107210665D02*
X58989166Y-107210665D01*
X58989166Y-107210665D02*
X58779642Y-107343999D01*
X58779642Y-107343999D02*
X58674881Y-107477332D01*
X58674881Y-107477332D02*
X58570119Y-107743999D01*
X58570119Y-107743999D02*
X58570119Y-108277332D01*
X58570119Y-108277332D02*
X58674881Y-108543999D01*
X58674881Y-108543999D02*
X58779642Y-108677332D01*
X58779642Y-108677332D02*
X58989166Y-108810665D01*
X59932023Y-103877332D02*
X57732023Y-103877332D01*
X57732023Y-103877332D02*
X57732023Y-102810665D01*
X57732023Y-102810665D02*
X57836785Y-102543999D01*
X57836785Y-102543999D02*
X57941547Y-102410665D01*
X57941547Y-102410665D02*
X58151071Y-102277332D01*
X58151071Y-102277332D02*
X58465357Y-102277332D01*
X58465357Y-102277332D02*
X58674881Y-102410665D01*
X58674881Y-102410665D02*
X58779642Y-102543999D01*
X58779642Y-102543999D02*
X58884404Y-102810665D01*
X58884404Y-102810665D02*
X58884404Y-103877332D01*
X59722500Y-99477332D02*
X59827262Y-99610665D01*
X59827262Y-99610665D02*
X59932023Y-100010665D01*
X59932023Y-100010665D02*
X59932023Y-100277332D01*
X59932023Y-100277332D02*
X59827262Y-100677332D01*
X59827262Y-100677332D02*
X59617738Y-100943999D01*
X59617738Y-100943999D02*
X59408214Y-101077332D01*
X59408214Y-101077332D02*
X58989166Y-101210665D01*
X58989166Y-101210665D02*
X58674881Y-101210665D01*
X58674881Y-101210665D02*
X58255833Y-101077332D01*
X58255833Y-101077332D02*
X58046309Y-100943999D01*
X58046309Y-100943999D02*
X57836785Y-100677332D01*
X57836785Y-100677332D02*
X57732023Y-100277332D01*
X57732023Y-100277332D02*
X57732023Y-100010665D01*
X57732023Y-100010665D02*
X57836785Y-99610665D01*
X57836785Y-99610665D02*
X57941547Y-99477332D01*
X58779642Y-97343999D02*
X58884404Y-96943999D01*
X58884404Y-96943999D02*
X58989166Y-96810665D01*
X58989166Y-96810665D02*
X59198690Y-96677332D01*
X59198690Y-96677332D02*
X59512976Y-96677332D01*
X59512976Y-96677332D02*
X59722500Y-96810665D01*
X59722500Y-96810665D02*
X59827262Y-96943999D01*
X59827262Y-96943999D02*
X59932023Y-97210665D01*
X59932023Y-97210665D02*
X59932023Y-98277332D01*
X59932023Y-98277332D02*
X57732023Y-98277332D01*
X57732023Y-98277332D02*
X57732023Y-97343999D01*
X57732023Y-97343999D02*
X57836785Y-97077332D01*
X57836785Y-97077332D02*
X57941547Y-96943999D01*
X57941547Y-96943999D02*
X58151071Y-96810665D01*
X58151071Y-96810665D02*
X58360595Y-96810665D01*
X58360595Y-96810665D02*
X58570119Y-96943999D01*
X58570119Y-96943999D02*
X58674881Y-97077332D01*
X58674881Y-97077332D02*
X58779642Y-97343999D01*
X58779642Y-97343999D02*
X58779642Y-98277332D01*
X63473900Y-122343998D02*
X62321519Y-122343998D01*
X62321519Y-122343998D02*
X62111996Y-122477331D01*
X62111996Y-122477331D02*
X62007234Y-122743998D01*
X62007234Y-122743998D02*
X62007234Y-123277331D01*
X62007234Y-123277331D02*
X62111996Y-123543998D01*
X63369139Y-122343998D02*
X63473900Y-122610665D01*
X63473900Y-122610665D02*
X63473900Y-123277331D01*
X63473900Y-123277331D02*
X63369139Y-123543998D01*
X63369139Y-123543998D02*
X63159615Y-123677331D01*
X63159615Y-123677331D02*
X62950091Y-123677331D01*
X62950091Y-123677331D02*
X62740567Y-123543998D01*
X62740567Y-123543998D02*
X62635805Y-123277331D01*
X62635805Y-123277331D02*
X62635805Y-122610665D01*
X62635805Y-122610665D02*
X62531043Y-122343998D01*
X63473900Y-119810665D02*
X61273900Y-119810665D01*
X63369139Y-119810665D02*
X63473900Y-120077332D01*
X63473900Y-120077332D02*
X63473900Y-120610665D01*
X63473900Y-120610665D02*
X63369139Y-120877332D01*
X63369139Y-120877332D02*
X63264377Y-121010665D01*
X63264377Y-121010665D02*
X63054853Y-121143998D01*
X63054853Y-121143998D02*
X62426281Y-121143998D01*
X62426281Y-121143998D02*
X62216758Y-121010665D01*
X62216758Y-121010665D02*
X62111996Y-120877332D01*
X62111996Y-120877332D02*
X62007234Y-120610665D01*
X62007234Y-120610665D02*
X62007234Y-120077332D01*
X62007234Y-120077332D02*
X62111996Y-119810665D01*
X63473900Y-117277332D02*
X62321519Y-117277332D01*
X62321519Y-117277332D02*
X62111996Y-117410665D01*
X62111996Y-117410665D02*
X62007234Y-117677332D01*
X62007234Y-117677332D02*
X62007234Y-118210665D01*
X62007234Y-118210665D02*
X62111996Y-118477332D01*
X63369139Y-117277332D02*
X63473900Y-117543999D01*
X63473900Y-117543999D02*
X63473900Y-118210665D01*
X63473900Y-118210665D02*
X63369139Y-118477332D01*
X63369139Y-118477332D02*
X63159615Y-118610665D01*
X63159615Y-118610665D02*
X62950091Y-118610665D01*
X62950091Y-118610665D02*
X62740567Y-118477332D01*
X62740567Y-118477332D02*
X62635805Y-118210665D01*
X62635805Y-118210665D02*
X62635805Y-117543999D01*
X62635805Y-117543999D02*
X62531043Y-117277332D01*
X62007234Y-115943999D02*
X64207234Y-115943999D01*
X62111996Y-115943999D02*
X62007234Y-115677332D01*
X62007234Y-115677332D02*
X62007234Y-115143999D01*
X62007234Y-115143999D02*
X62111996Y-114877332D01*
X62111996Y-114877332D02*
X62216758Y-114743999D01*
X62216758Y-114743999D02*
X62426281Y-114610666D01*
X62426281Y-114610666D02*
X63054853Y-114610666D01*
X63054853Y-114610666D02*
X63264377Y-114743999D01*
X63264377Y-114743999D02*
X63369139Y-114877332D01*
X63369139Y-114877332D02*
X63473900Y-115143999D01*
X63473900Y-115143999D02*
X63473900Y-115677332D01*
X63473900Y-115677332D02*
X63369139Y-115943999D01*
X62007234Y-113810666D02*
X62007234Y-112743999D01*
X61273900Y-113410666D02*
X63159615Y-113410666D01*
X63159615Y-113410666D02*
X63369139Y-113277333D01*
X63369139Y-113277333D02*
X63473900Y-113010666D01*
X63473900Y-113010666D02*
X63473900Y-112743999D01*
X63473900Y-111410666D02*
X63369139Y-111677333D01*
X63369139Y-111677333D02*
X63264377Y-111810666D01*
X63264377Y-111810666D02*
X63054853Y-111943999D01*
X63054853Y-111943999D02*
X62426281Y-111943999D01*
X62426281Y-111943999D02*
X62216758Y-111810666D01*
X62216758Y-111810666D02*
X62111996Y-111677333D01*
X62111996Y-111677333D02*
X62007234Y-111410666D01*
X62007234Y-111410666D02*
X62007234Y-111010666D01*
X62007234Y-111010666D02*
X62111996Y-110743999D01*
X62111996Y-110743999D02*
X62216758Y-110610666D01*
X62216758Y-110610666D02*
X62426281Y-110477333D01*
X62426281Y-110477333D02*
X63054853Y-110477333D01*
X63054853Y-110477333D02*
X63264377Y-110610666D01*
X63264377Y-110610666D02*
X63369139Y-110743999D01*
X63369139Y-110743999D02*
X63473900Y-111010666D01*
X63473900Y-111010666D02*
X63473900Y-111410666D01*
X63473900Y-109277333D02*
X62007234Y-109277333D01*
X62426281Y-109277333D02*
X62216758Y-109144000D01*
X62216758Y-109144000D02*
X62111996Y-109010666D01*
X62111996Y-109010666D02*
X62007234Y-108744000D01*
X62007234Y-108744000D02*
X62007234Y-108477333D01*
X62007234Y-105677334D02*
X63473900Y-105010667D01*
X63473900Y-105010667D02*
X62007234Y-104344000D01*
X63473900Y-101810667D02*
X63473900Y-103410667D01*
X63473900Y-102610667D02*
X61273900Y-102610667D01*
X61273900Y-102610667D02*
X61588186Y-102877334D01*
X61588186Y-102877334D02*
X61797710Y-103144001D01*
X61797710Y-103144001D02*
X61902472Y-103410667D01*
X63264377Y-100610667D02*
X63369139Y-100477334D01*
X63369139Y-100477334D02*
X63473900Y-100610667D01*
X63473900Y-100610667D02*
X63369139Y-100744000D01*
X63369139Y-100744000D02*
X63264377Y-100610667D01*
X63264377Y-100610667D02*
X63473900Y-100610667D01*
X61273900Y-98744001D02*
X61273900Y-98477334D01*
X61273900Y-98477334D02*
X61378662Y-98210667D01*
X61378662Y-98210667D02*
X61483424Y-98077334D01*
X61483424Y-98077334D02*
X61692948Y-97944001D01*
X61692948Y-97944001D02*
X62111996Y-97810667D01*
X62111996Y-97810667D02*
X62635805Y-97810667D01*
X62635805Y-97810667D02*
X63054853Y-97944001D01*
X63054853Y-97944001D02*
X63264377Y-98077334D01*
X63264377Y-98077334D02*
X63369139Y-98210667D01*
X63369139Y-98210667D02*
X63473900Y-98477334D01*
X63473900Y-98477334D02*
X63473900Y-98744001D01*
X63473900Y-98744001D02*
X63369139Y-99010667D01*
X63369139Y-99010667D02*
X63264377Y-99144001D01*
X63264377Y-99144001D02*
X63054853Y-99277334D01*
X63054853Y-99277334D02*
X62635805Y-99410667D01*
X62635805Y-99410667D02*
X62111996Y-99410667D01*
X62111996Y-99410667D02*
X61692948Y-99277334D01*
X61692948Y-99277334D02*
X61483424Y-99144001D01*
X61483424Y-99144001D02*
X61378662Y-99010667D01*
X61378662Y-99010667D02*
X61273900Y-98744001D01*
D11*
X52001009Y-128434573D02*
X52001009Y-128101240D01*
X52524819Y-127958383D02*
X52524819Y-128434573D01*
X52524819Y-128434573D02*
X51524819Y-128434573D01*
X51524819Y-128434573D02*
X51524819Y-127958383D01*
X52477200Y-127577430D02*
X52524819Y-127434573D01*
X52524819Y-127434573D02*
X52524819Y-127196478D01*
X52524819Y-127196478D02*
X52477200Y-127101240D01*
X52477200Y-127101240D02*
X52429580Y-127053621D01*
X52429580Y-127053621D02*
X52334342Y-127006002D01*
X52334342Y-127006002D02*
X52239104Y-127006002D01*
X52239104Y-127006002D02*
X52143866Y-127053621D01*
X52143866Y-127053621D02*
X52096247Y-127101240D01*
X52096247Y-127101240D02*
X52048628Y-127196478D01*
X52048628Y-127196478D02*
X52001009Y-127386954D01*
X52001009Y-127386954D02*
X51953390Y-127482192D01*
X51953390Y-127482192D02*
X51905771Y-127529811D01*
X51905771Y-127529811D02*
X51810533Y-127577430D01*
X51810533Y-127577430D02*
X51715295Y-127577430D01*
X51715295Y-127577430D02*
X51620057Y-127529811D01*
X51620057Y-127529811D02*
X51572438Y-127482192D01*
X51572438Y-127482192D02*
X51524819Y-127386954D01*
X51524819Y-127386954D02*
X51524819Y-127148859D01*
X51524819Y-127148859D02*
X51572438Y-127006002D01*
X52524819Y-126577430D02*
X51524819Y-126577430D01*
X51524819Y-126577430D02*
X51524819Y-126196478D01*
X51524819Y-126196478D02*
X51572438Y-126101240D01*
X51572438Y-126101240D02*
X51620057Y-126053621D01*
X51620057Y-126053621D02*
X51715295Y-126006002D01*
X51715295Y-126006002D02*
X51858152Y-126006002D01*
X51858152Y-126006002D02*
X51953390Y-126053621D01*
X51953390Y-126053621D02*
X52001009Y-126101240D01*
X52001009Y-126101240D02*
X52048628Y-126196478D01*
X52048628Y-126196478D02*
X52048628Y-126577430D01*
X51953390Y-125434573D02*
X51905771Y-125529811D01*
X51905771Y-125529811D02*
X51858152Y-125577430D01*
X51858152Y-125577430D02*
X51762914Y-125625049D01*
X51762914Y-125625049D02*
X51715295Y-125625049D01*
X51715295Y-125625049D02*
X51620057Y-125577430D01*
X51620057Y-125577430D02*
X51572438Y-125529811D01*
X51572438Y-125529811D02*
X51524819Y-125434573D01*
X51524819Y-125434573D02*
X51524819Y-125244097D01*
X51524819Y-125244097D02*
X51572438Y-125148859D01*
X51572438Y-125148859D02*
X51620057Y-125101240D01*
X51620057Y-125101240D02*
X51715295Y-125053621D01*
X51715295Y-125053621D02*
X51762914Y-125053621D01*
X51762914Y-125053621D02*
X51858152Y-125101240D01*
X51858152Y-125101240D02*
X51905771Y-125148859D01*
X51905771Y-125148859D02*
X51953390Y-125244097D01*
X51953390Y-125244097D02*
X51953390Y-125434573D01*
X51953390Y-125434573D02*
X52001009Y-125529811D01*
X52001009Y-125529811D02*
X52048628Y-125577430D01*
X52048628Y-125577430D02*
X52143866Y-125625049D01*
X52143866Y-125625049D02*
X52334342Y-125625049D01*
X52334342Y-125625049D02*
X52429580Y-125577430D01*
X52429580Y-125577430D02*
X52477200Y-125529811D01*
X52477200Y-125529811D02*
X52524819Y-125434573D01*
X52524819Y-125434573D02*
X52524819Y-125244097D01*
X52524819Y-125244097D02*
X52477200Y-125148859D01*
X52477200Y-125148859D02*
X52429580Y-125101240D01*
X52429580Y-125101240D02*
X52334342Y-125053621D01*
X52334342Y-125053621D02*
X52143866Y-125053621D01*
X52143866Y-125053621D02*
X52048628Y-125101240D01*
X52048628Y-125101240D02*
X52001009Y-125148859D01*
X52001009Y-125148859D02*
X51953390Y-125244097D01*
X51620057Y-124672668D02*
X51572438Y-124625049D01*
X51572438Y-124625049D02*
X51524819Y-124529811D01*
X51524819Y-124529811D02*
X51524819Y-124291716D01*
X51524819Y-124291716D02*
X51572438Y-124196478D01*
X51572438Y-124196478D02*
X51620057Y-124148859D01*
X51620057Y-124148859D02*
X51715295Y-124101240D01*
X51715295Y-124101240D02*
X51810533Y-124101240D01*
X51810533Y-124101240D02*
X51953390Y-124148859D01*
X51953390Y-124148859D02*
X52524819Y-124720287D01*
X52524819Y-124720287D02*
X52524819Y-124101240D01*
X51524819Y-123244097D02*
X51524819Y-123434573D01*
X51524819Y-123434573D02*
X51572438Y-123529811D01*
X51572438Y-123529811D02*
X51620057Y-123577430D01*
X51620057Y-123577430D02*
X51762914Y-123672668D01*
X51762914Y-123672668D02*
X51953390Y-123720287D01*
X51953390Y-123720287D02*
X52334342Y-123720287D01*
X52334342Y-123720287D02*
X52429580Y-123672668D01*
X52429580Y-123672668D02*
X52477200Y-123625049D01*
X52477200Y-123625049D02*
X52524819Y-123529811D01*
X52524819Y-123529811D02*
X52524819Y-123339335D01*
X52524819Y-123339335D02*
X52477200Y-123244097D01*
X52477200Y-123244097D02*
X52429580Y-123196478D01*
X52429580Y-123196478D02*
X52334342Y-123148859D01*
X52334342Y-123148859D02*
X52096247Y-123148859D01*
X52096247Y-123148859D02*
X52001009Y-123196478D01*
X52001009Y-123196478D02*
X51953390Y-123244097D01*
X51953390Y-123244097D02*
X51905771Y-123339335D01*
X51905771Y-123339335D02*
X51905771Y-123529811D01*
X51905771Y-123529811D02*
X51953390Y-123625049D01*
X51953390Y-123625049D02*
X52001009Y-123672668D01*
X52001009Y-123672668D02*
X52096247Y-123720287D01*
X51524819Y-122291716D02*
X51524819Y-122482192D01*
X51524819Y-122482192D02*
X51572438Y-122577430D01*
X51572438Y-122577430D02*
X51620057Y-122625049D01*
X51620057Y-122625049D02*
X51762914Y-122720287D01*
X51762914Y-122720287D02*
X51953390Y-122767906D01*
X51953390Y-122767906D02*
X52334342Y-122767906D01*
X52334342Y-122767906D02*
X52429580Y-122720287D01*
X52429580Y-122720287D02*
X52477200Y-122672668D01*
X52477200Y-122672668D02*
X52524819Y-122577430D01*
X52524819Y-122577430D02*
X52524819Y-122386954D01*
X52524819Y-122386954D02*
X52477200Y-122291716D01*
X52477200Y-122291716D02*
X52429580Y-122244097D01*
X52429580Y-122244097D02*
X52334342Y-122196478D01*
X52334342Y-122196478D02*
X52096247Y-122196478D01*
X52096247Y-122196478D02*
X52001009Y-122244097D01*
X52001009Y-122244097D02*
X51953390Y-122291716D01*
X51953390Y-122291716D02*
X51905771Y-122386954D01*
X51905771Y-122386954D02*
X51905771Y-122577430D01*
X51905771Y-122577430D02*
X51953390Y-122672668D01*
X51953390Y-122672668D02*
X52001009Y-122720287D01*
X52001009Y-122720287D02*
X52096247Y-122767906D01*
X51858152Y-121101239D02*
X52524819Y-120863144D01*
X52524819Y-120863144D02*
X51858152Y-120625049D01*
X51524819Y-120053620D02*
X51524819Y-119958382D01*
X51524819Y-119958382D02*
X51572438Y-119863144D01*
X51572438Y-119863144D02*
X51620057Y-119815525D01*
X51620057Y-119815525D02*
X51715295Y-119767906D01*
X51715295Y-119767906D02*
X51905771Y-119720287D01*
X51905771Y-119720287D02*
X52143866Y-119720287D01*
X52143866Y-119720287D02*
X52334342Y-119767906D01*
X52334342Y-119767906D02*
X52429580Y-119815525D01*
X52429580Y-119815525D02*
X52477200Y-119863144D01*
X52477200Y-119863144D02*
X52524819Y-119958382D01*
X52524819Y-119958382D02*
X52524819Y-120053620D01*
X52524819Y-120053620D02*
X52477200Y-120148858D01*
X52477200Y-120148858D02*
X52429580Y-120196477D01*
X52429580Y-120196477D02*
X52334342Y-120244096D01*
X52334342Y-120244096D02*
X52143866Y-120291715D01*
X52143866Y-120291715D02*
X51905771Y-120291715D01*
X51905771Y-120291715D02*
X51715295Y-120244096D01*
X51715295Y-120244096D02*
X51620057Y-120196477D01*
X51620057Y-120196477D02*
X51572438Y-120148858D01*
X51572438Y-120148858D02*
X51524819Y-120053620D01*
X52429580Y-119291715D02*
X52477200Y-119244096D01*
X52477200Y-119244096D02*
X52524819Y-119291715D01*
X52524819Y-119291715D02*
X52477200Y-119339334D01*
X52477200Y-119339334D02*
X52429580Y-119291715D01*
X52429580Y-119291715D02*
X52524819Y-119291715D01*
X52524819Y-118767906D02*
X52524819Y-118577430D01*
X52524819Y-118577430D02*
X52477200Y-118482192D01*
X52477200Y-118482192D02*
X52429580Y-118434573D01*
X52429580Y-118434573D02*
X52286723Y-118339335D01*
X52286723Y-118339335D02*
X52096247Y-118291716D01*
X52096247Y-118291716D02*
X51715295Y-118291716D01*
X51715295Y-118291716D02*
X51620057Y-118339335D01*
X51620057Y-118339335D02*
X51572438Y-118386954D01*
X51572438Y-118386954D02*
X51524819Y-118482192D01*
X51524819Y-118482192D02*
X51524819Y-118672668D01*
X51524819Y-118672668D02*
X51572438Y-118767906D01*
X51572438Y-118767906D02*
X51620057Y-118815525D01*
X51620057Y-118815525D02*
X51715295Y-118863144D01*
X51715295Y-118863144D02*
X51953390Y-118863144D01*
X51953390Y-118863144D02*
X52048628Y-118815525D01*
X52048628Y-118815525D02*
X52096247Y-118767906D01*
X52096247Y-118767906D02*
X52143866Y-118672668D01*
X52143866Y-118672668D02*
X52143866Y-118482192D01*
X52143866Y-118482192D02*
X52096247Y-118386954D01*
X52096247Y-118386954D02*
X52048628Y-118339335D01*
X52048628Y-118339335D02*
X51953390Y-118291716D01*
X52524819Y-116958382D02*
X52477200Y-117053620D01*
X52477200Y-117053620D02*
X52429580Y-117101239D01*
X52429580Y-117101239D02*
X52334342Y-117148858D01*
X52334342Y-117148858D02*
X52048628Y-117148858D01*
X52048628Y-117148858D02*
X51953390Y-117101239D01*
X51953390Y-117101239D02*
X51905771Y-117053620D01*
X51905771Y-117053620D02*
X51858152Y-116958382D01*
X51858152Y-116958382D02*
X51858152Y-116815525D01*
X51858152Y-116815525D02*
X51905771Y-116720287D01*
X51905771Y-116720287D02*
X51953390Y-116672668D01*
X51953390Y-116672668D02*
X52048628Y-116625049D01*
X52048628Y-116625049D02*
X52334342Y-116625049D01*
X52334342Y-116625049D02*
X52429580Y-116672668D01*
X52429580Y-116672668D02*
X52477200Y-116720287D01*
X52477200Y-116720287D02*
X52524819Y-116815525D01*
X52524819Y-116815525D02*
X52524819Y-116958382D01*
X52524819Y-116196477D02*
X51858152Y-116196477D01*
X52048628Y-116196477D02*
X51953390Y-116148858D01*
X51953390Y-116148858D02*
X51905771Y-116101239D01*
X51905771Y-116101239D02*
X51858152Y-116006001D01*
X51858152Y-116006001D02*
X51858152Y-115910763D01*
X51858152Y-114910762D02*
X52524819Y-114672667D01*
X52524819Y-114672667D02*
X51858152Y-114434572D01*
X51524819Y-114148857D02*
X51524819Y-113529810D01*
X51524819Y-113529810D02*
X51905771Y-113863143D01*
X51905771Y-113863143D02*
X51905771Y-113720286D01*
X51905771Y-113720286D02*
X51953390Y-113625048D01*
X51953390Y-113625048D02*
X52001009Y-113577429D01*
X52001009Y-113577429D02*
X52096247Y-113529810D01*
X52096247Y-113529810D02*
X52334342Y-113529810D01*
X52334342Y-113529810D02*
X52429580Y-113577429D01*
X52429580Y-113577429D02*
X52477200Y-113625048D01*
X52477200Y-113625048D02*
X52524819Y-113720286D01*
X52524819Y-113720286D02*
X52524819Y-114006000D01*
X52524819Y-114006000D02*
X52477200Y-114101238D01*
X52477200Y-114101238D02*
X52429580Y-114148857D01*
X52524819Y-112196476D02*
X52477200Y-112291714D01*
X52477200Y-112291714D02*
X52381961Y-112339333D01*
X52381961Y-112339333D02*
X51524819Y-112339333D01*
X52477200Y-111434571D02*
X52524819Y-111529809D01*
X52524819Y-111529809D02*
X52524819Y-111720285D01*
X52524819Y-111720285D02*
X52477200Y-111815523D01*
X52477200Y-111815523D02*
X52381961Y-111863142D01*
X52381961Y-111863142D02*
X52001009Y-111863142D01*
X52001009Y-111863142D02*
X51905771Y-111815523D01*
X51905771Y-111815523D02*
X51858152Y-111720285D01*
X51858152Y-111720285D02*
X51858152Y-111529809D01*
X51858152Y-111529809D02*
X51905771Y-111434571D01*
X51905771Y-111434571D02*
X52001009Y-111386952D01*
X52001009Y-111386952D02*
X52096247Y-111386952D01*
X52096247Y-111386952D02*
X52191485Y-111863142D01*
X51858152Y-111101237D02*
X51858152Y-110720285D01*
X52524819Y-110958380D02*
X51667676Y-110958380D01*
X51667676Y-110958380D02*
X51572438Y-110910761D01*
X51572438Y-110910761D02*
X51524819Y-110815523D01*
X51524819Y-110815523D02*
X51524819Y-110720285D01*
X51858152Y-110529808D02*
X51858152Y-110148856D01*
X51524819Y-110386951D02*
X52381961Y-110386951D01*
X52381961Y-110386951D02*
X52477200Y-110339332D01*
X52477200Y-110339332D02*
X52524819Y-110244094D01*
X52524819Y-110244094D02*
X52524819Y-110148856D01*
X51858152Y-109053617D02*
X52858152Y-109053617D01*
X51905771Y-109053617D02*
X51858152Y-108958379D01*
X51858152Y-108958379D02*
X51858152Y-108767903D01*
X51858152Y-108767903D02*
X51905771Y-108672665D01*
X51905771Y-108672665D02*
X51953390Y-108625046D01*
X51953390Y-108625046D02*
X52048628Y-108577427D01*
X52048628Y-108577427D02*
X52334342Y-108577427D01*
X52334342Y-108577427D02*
X52429580Y-108625046D01*
X52429580Y-108625046D02*
X52477200Y-108672665D01*
X52477200Y-108672665D02*
X52524819Y-108767903D01*
X52524819Y-108767903D02*
X52524819Y-108958379D01*
X52524819Y-108958379D02*
X52477200Y-109053617D01*
X52524819Y-108148855D02*
X51858152Y-108148855D01*
X51524819Y-108148855D02*
X51572438Y-108196474D01*
X51572438Y-108196474D02*
X51620057Y-108148855D01*
X51620057Y-108148855D02*
X51572438Y-108101236D01*
X51572438Y-108101236D02*
X51524819Y-108148855D01*
X51524819Y-108148855D02*
X51620057Y-108148855D01*
X51858152Y-107672665D02*
X52524819Y-107672665D01*
X51953390Y-107672665D02*
X51905771Y-107625046D01*
X51905771Y-107625046D02*
X51858152Y-107529808D01*
X51858152Y-107529808D02*
X51858152Y-107386951D01*
X51858152Y-107386951D02*
X51905771Y-107291713D01*
X51905771Y-107291713D02*
X52001009Y-107244094D01*
X52001009Y-107244094D02*
X52524819Y-107244094D01*
X52477200Y-106815522D02*
X52524819Y-106720284D01*
X52524819Y-106720284D02*
X52524819Y-106529808D01*
X52524819Y-106529808D02*
X52477200Y-106434570D01*
X52477200Y-106434570D02*
X52381961Y-106386951D01*
X52381961Y-106386951D02*
X52334342Y-106386951D01*
X52334342Y-106386951D02*
X52239104Y-106434570D01*
X52239104Y-106434570D02*
X52191485Y-106529808D01*
X52191485Y-106529808D02*
X52191485Y-106672665D01*
X52191485Y-106672665D02*
X52143866Y-106767903D01*
X52143866Y-106767903D02*
X52048628Y-106815522D01*
X52048628Y-106815522D02*
X52001009Y-106815522D01*
X52001009Y-106815522D02*
X51905771Y-106767903D01*
X51905771Y-106767903D02*
X51858152Y-106672665D01*
X51858152Y-106672665D02*
X51858152Y-106529808D01*
X51858152Y-106529808D02*
X51905771Y-106434570D01*
X52524819Y-105053617D02*
X52477200Y-105148855D01*
X52477200Y-105148855D02*
X52429580Y-105196474D01*
X52429580Y-105196474D02*
X52334342Y-105244093D01*
X52334342Y-105244093D02*
X52048628Y-105244093D01*
X52048628Y-105244093D02*
X51953390Y-105196474D01*
X51953390Y-105196474D02*
X51905771Y-105148855D01*
X51905771Y-105148855D02*
X51858152Y-105053617D01*
X51858152Y-105053617D02*
X51858152Y-104910760D01*
X51858152Y-104910760D02*
X51905771Y-104815522D01*
X51905771Y-104815522D02*
X51953390Y-104767903D01*
X51953390Y-104767903D02*
X52048628Y-104720284D01*
X52048628Y-104720284D02*
X52334342Y-104720284D01*
X52334342Y-104720284D02*
X52429580Y-104767903D01*
X52429580Y-104767903D02*
X52477200Y-104815522D01*
X52477200Y-104815522D02*
X52524819Y-104910760D01*
X52524819Y-104910760D02*
X52524819Y-105053617D01*
X51858152Y-104291712D02*
X52524819Y-104291712D01*
X51953390Y-104291712D02*
X51905771Y-104244093D01*
X51905771Y-104244093D02*
X51858152Y-104148855D01*
X51858152Y-104148855D02*
X51858152Y-104005998D01*
X51858152Y-104005998D02*
X51905771Y-103910760D01*
X51905771Y-103910760D02*
X52001009Y-103863141D01*
X52001009Y-103863141D02*
X52524819Y-103863141D01*
X51858152Y-102767902D02*
X51858152Y-102386950D01*
X51524819Y-102625045D02*
X52381961Y-102625045D01*
X52381961Y-102625045D02*
X52477200Y-102577426D01*
X52477200Y-102577426D02*
X52524819Y-102482188D01*
X52524819Y-102482188D02*
X52524819Y-102386950D01*
X52524819Y-102053616D02*
X51524819Y-102053616D01*
X52524819Y-101625045D02*
X52001009Y-101625045D01*
X52001009Y-101625045D02*
X51905771Y-101672664D01*
X51905771Y-101672664D02*
X51858152Y-101767902D01*
X51858152Y-101767902D02*
X51858152Y-101910759D01*
X51858152Y-101910759D02*
X51905771Y-102005997D01*
X51905771Y-102005997D02*
X51953390Y-102053616D01*
X52477200Y-100767902D02*
X52524819Y-100863140D01*
X52524819Y-100863140D02*
X52524819Y-101053616D01*
X52524819Y-101053616D02*
X52477200Y-101148854D01*
X52477200Y-101148854D02*
X52381961Y-101196473D01*
X52381961Y-101196473D02*
X52001009Y-101196473D01*
X52001009Y-101196473D02*
X51905771Y-101148854D01*
X51905771Y-101148854D02*
X51858152Y-101053616D01*
X51858152Y-101053616D02*
X51858152Y-100863140D01*
X51858152Y-100863140D02*
X51905771Y-100767902D01*
X51905771Y-100767902D02*
X52001009Y-100720283D01*
X52001009Y-100720283D02*
X52096247Y-100720283D01*
X52096247Y-100720283D02*
X52191485Y-101196473D01*
X52524819Y-99386949D02*
X52477200Y-99482187D01*
X52477200Y-99482187D02*
X52429580Y-99529806D01*
X52429580Y-99529806D02*
X52334342Y-99577425D01*
X52334342Y-99577425D02*
X52048628Y-99577425D01*
X52048628Y-99577425D02*
X51953390Y-99529806D01*
X51953390Y-99529806D02*
X51905771Y-99482187D01*
X51905771Y-99482187D02*
X51858152Y-99386949D01*
X51858152Y-99386949D02*
X51858152Y-99244092D01*
X51858152Y-99244092D02*
X51905771Y-99148854D01*
X51905771Y-99148854D02*
X51953390Y-99101235D01*
X51953390Y-99101235D02*
X52048628Y-99053616D01*
X52048628Y-99053616D02*
X52334342Y-99053616D01*
X52334342Y-99053616D02*
X52429580Y-99101235D01*
X52429580Y-99101235D02*
X52477200Y-99148854D01*
X52477200Y-99148854D02*
X52524819Y-99244092D01*
X52524819Y-99244092D02*
X52524819Y-99386949D01*
X51858152Y-98196473D02*
X52524819Y-98196473D01*
X51858152Y-98625044D02*
X52381961Y-98625044D01*
X52381961Y-98625044D02*
X52477200Y-98577425D01*
X52477200Y-98577425D02*
X52524819Y-98482187D01*
X52524819Y-98482187D02*
X52524819Y-98339330D01*
X52524819Y-98339330D02*
X52477200Y-98244092D01*
X52477200Y-98244092D02*
X52429580Y-98196473D01*
X51858152Y-97863139D02*
X51858152Y-97482187D01*
X51524819Y-97720282D02*
X52381961Y-97720282D01*
X52381961Y-97720282D02*
X52477200Y-97672663D01*
X52477200Y-97672663D02*
X52524819Y-97577425D01*
X52524819Y-97577425D02*
X52524819Y-97482187D01*
X52477200Y-97196472D02*
X52524819Y-97101234D01*
X52524819Y-97101234D02*
X52524819Y-96910758D01*
X52524819Y-96910758D02*
X52477200Y-96815520D01*
X52477200Y-96815520D02*
X52381961Y-96767901D01*
X52381961Y-96767901D02*
X52334342Y-96767901D01*
X52334342Y-96767901D02*
X52239104Y-96815520D01*
X52239104Y-96815520D02*
X52191485Y-96910758D01*
X52191485Y-96910758D02*
X52191485Y-97053615D01*
X52191485Y-97053615D02*
X52143866Y-97148853D01*
X52143866Y-97148853D02*
X52048628Y-97196472D01*
X52048628Y-97196472D02*
X52001009Y-97196472D01*
X52001009Y-97196472D02*
X51905771Y-97148853D01*
X51905771Y-97148853D02*
X51858152Y-97053615D01*
X51858152Y-97053615D02*
X51858152Y-96910758D01*
X51858152Y-96910758D02*
X51905771Y-96815520D01*
X52524819Y-96339329D02*
X51858152Y-96339329D01*
X51524819Y-96339329D02*
X51572438Y-96386948D01*
X51572438Y-96386948D02*
X51620057Y-96339329D01*
X51620057Y-96339329D02*
X51572438Y-96291710D01*
X51572438Y-96291710D02*
X51524819Y-96339329D01*
X51524819Y-96339329D02*
X51620057Y-96339329D01*
X52524819Y-95434568D02*
X51524819Y-95434568D01*
X52477200Y-95434568D02*
X52524819Y-95529806D01*
X52524819Y-95529806D02*
X52524819Y-95720282D01*
X52524819Y-95720282D02*
X52477200Y-95815520D01*
X52477200Y-95815520D02*
X52429580Y-95863139D01*
X52429580Y-95863139D02*
X52334342Y-95910758D01*
X52334342Y-95910758D02*
X52048628Y-95910758D01*
X52048628Y-95910758D02*
X51953390Y-95863139D01*
X51953390Y-95863139D02*
X51905771Y-95815520D01*
X51905771Y-95815520D02*
X51858152Y-95720282D01*
X51858152Y-95720282D02*
X51858152Y-95529806D01*
X51858152Y-95529806D02*
X51905771Y-95434568D01*
X52477200Y-94577425D02*
X52524819Y-94672663D01*
X52524819Y-94672663D02*
X52524819Y-94863139D01*
X52524819Y-94863139D02*
X52477200Y-94958377D01*
X52477200Y-94958377D02*
X52381961Y-95005996D01*
X52381961Y-95005996D02*
X52001009Y-95005996D01*
X52001009Y-95005996D02*
X51905771Y-94958377D01*
X51905771Y-94958377D02*
X51858152Y-94863139D01*
X51858152Y-94863139D02*
X51858152Y-94672663D01*
X51858152Y-94672663D02*
X51905771Y-94577425D01*
X51905771Y-94577425D02*
X52001009Y-94529806D01*
X52001009Y-94529806D02*
X52096247Y-94529806D01*
X52096247Y-94529806D02*
X52191485Y-95005996D01*
X69781009Y-128910763D02*
X69781009Y-128577430D01*
X70304819Y-128434573D02*
X70304819Y-128910763D01*
X70304819Y-128910763D02*
X69304819Y-128910763D01*
X69304819Y-128910763D02*
X69304819Y-128434573D01*
X70257200Y-128053620D02*
X70304819Y-127910763D01*
X70304819Y-127910763D02*
X70304819Y-127672668D01*
X70304819Y-127672668D02*
X70257200Y-127577430D01*
X70257200Y-127577430D02*
X70209580Y-127529811D01*
X70209580Y-127529811D02*
X70114342Y-127482192D01*
X70114342Y-127482192D02*
X70019104Y-127482192D01*
X70019104Y-127482192D02*
X69923866Y-127529811D01*
X69923866Y-127529811D02*
X69876247Y-127577430D01*
X69876247Y-127577430D02*
X69828628Y-127672668D01*
X69828628Y-127672668D02*
X69781009Y-127863144D01*
X69781009Y-127863144D02*
X69733390Y-127958382D01*
X69733390Y-127958382D02*
X69685771Y-128006001D01*
X69685771Y-128006001D02*
X69590533Y-128053620D01*
X69590533Y-128053620D02*
X69495295Y-128053620D01*
X69495295Y-128053620D02*
X69400057Y-128006001D01*
X69400057Y-128006001D02*
X69352438Y-127958382D01*
X69352438Y-127958382D02*
X69304819Y-127863144D01*
X69304819Y-127863144D02*
X69304819Y-127625049D01*
X69304819Y-127625049D02*
X69352438Y-127482192D01*
X70304819Y-127053620D02*
X69304819Y-127053620D01*
X69304819Y-127053620D02*
X69304819Y-126672668D01*
X69304819Y-126672668D02*
X69352438Y-126577430D01*
X69352438Y-126577430D02*
X69400057Y-126529811D01*
X69400057Y-126529811D02*
X69495295Y-126482192D01*
X69495295Y-126482192D02*
X69638152Y-126482192D01*
X69638152Y-126482192D02*
X69733390Y-126529811D01*
X69733390Y-126529811D02*
X69781009Y-126577430D01*
X69781009Y-126577430D02*
X69828628Y-126672668D01*
X69828628Y-126672668D02*
X69828628Y-127053620D01*
X69733390Y-125910763D02*
X69685771Y-126006001D01*
X69685771Y-126006001D02*
X69638152Y-126053620D01*
X69638152Y-126053620D02*
X69542914Y-126101239D01*
X69542914Y-126101239D02*
X69495295Y-126101239D01*
X69495295Y-126101239D02*
X69400057Y-126053620D01*
X69400057Y-126053620D02*
X69352438Y-126006001D01*
X69352438Y-126006001D02*
X69304819Y-125910763D01*
X69304819Y-125910763D02*
X69304819Y-125720287D01*
X69304819Y-125720287D02*
X69352438Y-125625049D01*
X69352438Y-125625049D02*
X69400057Y-125577430D01*
X69400057Y-125577430D02*
X69495295Y-125529811D01*
X69495295Y-125529811D02*
X69542914Y-125529811D01*
X69542914Y-125529811D02*
X69638152Y-125577430D01*
X69638152Y-125577430D02*
X69685771Y-125625049D01*
X69685771Y-125625049D02*
X69733390Y-125720287D01*
X69733390Y-125720287D02*
X69733390Y-125910763D01*
X69733390Y-125910763D02*
X69781009Y-126006001D01*
X69781009Y-126006001D02*
X69828628Y-126053620D01*
X69828628Y-126053620D02*
X69923866Y-126101239D01*
X69923866Y-126101239D02*
X70114342Y-126101239D01*
X70114342Y-126101239D02*
X70209580Y-126053620D01*
X70209580Y-126053620D02*
X70257200Y-126006001D01*
X70257200Y-126006001D02*
X70304819Y-125910763D01*
X70304819Y-125910763D02*
X70304819Y-125720287D01*
X70304819Y-125720287D02*
X70257200Y-125625049D01*
X70257200Y-125625049D02*
X70209580Y-125577430D01*
X70209580Y-125577430D02*
X70114342Y-125529811D01*
X70114342Y-125529811D02*
X69923866Y-125529811D01*
X69923866Y-125529811D02*
X69828628Y-125577430D01*
X69828628Y-125577430D02*
X69781009Y-125625049D01*
X69781009Y-125625049D02*
X69733390Y-125720287D01*
X69400057Y-125148858D02*
X69352438Y-125101239D01*
X69352438Y-125101239D02*
X69304819Y-125006001D01*
X69304819Y-125006001D02*
X69304819Y-124767906D01*
X69304819Y-124767906D02*
X69352438Y-124672668D01*
X69352438Y-124672668D02*
X69400057Y-124625049D01*
X69400057Y-124625049D02*
X69495295Y-124577430D01*
X69495295Y-124577430D02*
X69590533Y-124577430D01*
X69590533Y-124577430D02*
X69733390Y-124625049D01*
X69733390Y-124625049D02*
X70304819Y-125196477D01*
X70304819Y-125196477D02*
X70304819Y-124577430D01*
X69304819Y-123720287D02*
X69304819Y-123910763D01*
X69304819Y-123910763D02*
X69352438Y-124006001D01*
X69352438Y-124006001D02*
X69400057Y-124053620D01*
X69400057Y-124053620D02*
X69542914Y-124148858D01*
X69542914Y-124148858D02*
X69733390Y-124196477D01*
X69733390Y-124196477D02*
X70114342Y-124196477D01*
X70114342Y-124196477D02*
X70209580Y-124148858D01*
X70209580Y-124148858D02*
X70257200Y-124101239D01*
X70257200Y-124101239D02*
X70304819Y-124006001D01*
X70304819Y-124006001D02*
X70304819Y-123815525D01*
X70304819Y-123815525D02*
X70257200Y-123720287D01*
X70257200Y-123720287D02*
X70209580Y-123672668D01*
X70209580Y-123672668D02*
X70114342Y-123625049D01*
X70114342Y-123625049D02*
X69876247Y-123625049D01*
X69876247Y-123625049D02*
X69781009Y-123672668D01*
X69781009Y-123672668D02*
X69733390Y-123720287D01*
X69733390Y-123720287D02*
X69685771Y-123815525D01*
X69685771Y-123815525D02*
X69685771Y-124006001D01*
X69685771Y-124006001D02*
X69733390Y-124101239D01*
X69733390Y-124101239D02*
X69781009Y-124148858D01*
X69781009Y-124148858D02*
X69876247Y-124196477D01*
X69304819Y-122767906D02*
X69304819Y-122958382D01*
X69304819Y-122958382D02*
X69352438Y-123053620D01*
X69352438Y-123053620D02*
X69400057Y-123101239D01*
X69400057Y-123101239D02*
X69542914Y-123196477D01*
X69542914Y-123196477D02*
X69733390Y-123244096D01*
X69733390Y-123244096D02*
X70114342Y-123244096D01*
X70114342Y-123244096D02*
X70209580Y-123196477D01*
X70209580Y-123196477D02*
X70257200Y-123148858D01*
X70257200Y-123148858D02*
X70304819Y-123053620D01*
X70304819Y-123053620D02*
X70304819Y-122863144D01*
X70304819Y-122863144D02*
X70257200Y-122767906D01*
X70257200Y-122767906D02*
X70209580Y-122720287D01*
X70209580Y-122720287D02*
X70114342Y-122672668D01*
X70114342Y-122672668D02*
X69876247Y-122672668D01*
X69876247Y-122672668D02*
X69781009Y-122720287D01*
X69781009Y-122720287D02*
X69733390Y-122767906D01*
X69733390Y-122767906D02*
X69685771Y-122863144D01*
X69685771Y-122863144D02*
X69685771Y-123053620D01*
X69685771Y-123053620D02*
X69733390Y-123148858D01*
X69733390Y-123148858D02*
X69781009Y-123196477D01*
X69781009Y-123196477D02*
X69876247Y-123244096D01*
X69638152Y-121577429D02*
X70304819Y-121339334D01*
X70304819Y-121339334D02*
X69638152Y-121101239D01*
X69304819Y-120529810D02*
X69304819Y-120434572D01*
X69304819Y-120434572D02*
X69352438Y-120339334D01*
X69352438Y-120339334D02*
X69400057Y-120291715D01*
X69400057Y-120291715D02*
X69495295Y-120244096D01*
X69495295Y-120244096D02*
X69685771Y-120196477D01*
X69685771Y-120196477D02*
X69923866Y-120196477D01*
X69923866Y-120196477D02*
X70114342Y-120244096D01*
X70114342Y-120244096D02*
X70209580Y-120291715D01*
X70209580Y-120291715D02*
X70257200Y-120339334D01*
X70257200Y-120339334D02*
X70304819Y-120434572D01*
X70304819Y-120434572D02*
X70304819Y-120529810D01*
X70304819Y-120529810D02*
X70257200Y-120625048D01*
X70257200Y-120625048D02*
X70209580Y-120672667D01*
X70209580Y-120672667D02*
X70114342Y-120720286D01*
X70114342Y-120720286D02*
X69923866Y-120767905D01*
X69923866Y-120767905D02*
X69685771Y-120767905D01*
X69685771Y-120767905D02*
X69495295Y-120720286D01*
X69495295Y-120720286D02*
X69400057Y-120672667D01*
X69400057Y-120672667D02*
X69352438Y-120625048D01*
X69352438Y-120625048D02*
X69304819Y-120529810D01*
X70209580Y-119767905D02*
X70257200Y-119720286D01*
X70257200Y-119720286D02*
X70304819Y-119767905D01*
X70304819Y-119767905D02*
X70257200Y-119815524D01*
X70257200Y-119815524D02*
X70209580Y-119767905D01*
X70209580Y-119767905D02*
X70304819Y-119767905D01*
X70304819Y-119244096D02*
X70304819Y-119053620D01*
X70304819Y-119053620D02*
X70257200Y-118958382D01*
X70257200Y-118958382D02*
X70209580Y-118910763D01*
X70209580Y-118910763D02*
X70066723Y-118815525D01*
X70066723Y-118815525D02*
X69876247Y-118767906D01*
X69876247Y-118767906D02*
X69495295Y-118767906D01*
X69495295Y-118767906D02*
X69400057Y-118815525D01*
X69400057Y-118815525D02*
X69352438Y-118863144D01*
X69352438Y-118863144D02*
X69304819Y-118958382D01*
X69304819Y-118958382D02*
X69304819Y-119148858D01*
X69304819Y-119148858D02*
X69352438Y-119244096D01*
X69352438Y-119244096D02*
X69400057Y-119291715D01*
X69400057Y-119291715D02*
X69495295Y-119339334D01*
X69495295Y-119339334D02*
X69733390Y-119339334D01*
X69733390Y-119339334D02*
X69828628Y-119291715D01*
X69828628Y-119291715D02*
X69876247Y-119244096D01*
X69876247Y-119244096D02*
X69923866Y-119148858D01*
X69923866Y-119148858D02*
X69923866Y-118958382D01*
X69923866Y-118958382D02*
X69876247Y-118863144D01*
X69876247Y-118863144D02*
X69828628Y-118815525D01*
X69828628Y-118815525D02*
X69733390Y-118767906D01*
X70304819Y-117434572D02*
X70257200Y-117529810D01*
X70257200Y-117529810D02*
X70209580Y-117577429D01*
X70209580Y-117577429D02*
X70114342Y-117625048D01*
X70114342Y-117625048D02*
X69828628Y-117625048D01*
X69828628Y-117625048D02*
X69733390Y-117577429D01*
X69733390Y-117577429D02*
X69685771Y-117529810D01*
X69685771Y-117529810D02*
X69638152Y-117434572D01*
X69638152Y-117434572D02*
X69638152Y-117291715D01*
X69638152Y-117291715D02*
X69685771Y-117196477D01*
X69685771Y-117196477D02*
X69733390Y-117148858D01*
X69733390Y-117148858D02*
X69828628Y-117101239D01*
X69828628Y-117101239D02*
X70114342Y-117101239D01*
X70114342Y-117101239D02*
X70209580Y-117148858D01*
X70209580Y-117148858D02*
X70257200Y-117196477D01*
X70257200Y-117196477D02*
X70304819Y-117291715D01*
X70304819Y-117291715D02*
X70304819Y-117434572D01*
X70304819Y-116672667D02*
X69638152Y-116672667D01*
X69828628Y-116672667D02*
X69733390Y-116625048D01*
X69733390Y-116625048D02*
X69685771Y-116577429D01*
X69685771Y-116577429D02*
X69638152Y-116482191D01*
X69638152Y-116482191D02*
X69638152Y-116386953D01*
X69638152Y-115386952D02*
X70304819Y-115148857D01*
X70304819Y-115148857D02*
X69638152Y-114910762D01*
X69304819Y-114625047D02*
X69304819Y-114006000D01*
X69304819Y-114006000D02*
X69685771Y-114339333D01*
X69685771Y-114339333D02*
X69685771Y-114196476D01*
X69685771Y-114196476D02*
X69733390Y-114101238D01*
X69733390Y-114101238D02*
X69781009Y-114053619D01*
X69781009Y-114053619D02*
X69876247Y-114006000D01*
X69876247Y-114006000D02*
X70114342Y-114006000D01*
X70114342Y-114006000D02*
X70209580Y-114053619D01*
X70209580Y-114053619D02*
X70257200Y-114101238D01*
X70257200Y-114101238D02*
X70304819Y-114196476D01*
X70304819Y-114196476D02*
X70304819Y-114482190D01*
X70304819Y-114482190D02*
X70257200Y-114577428D01*
X70257200Y-114577428D02*
X70209580Y-114625047D01*
X70304819Y-112815523D02*
X69638152Y-112815523D01*
X69828628Y-112815523D02*
X69733390Y-112767904D01*
X69733390Y-112767904D02*
X69685771Y-112720285D01*
X69685771Y-112720285D02*
X69638152Y-112625047D01*
X69638152Y-112625047D02*
X69638152Y-112529809D01*
X70304819Y-112196475D02*
X69638152Y-112196475D01*
X69304819Y-112196475D02*
X69352438Y-112244094D01*
X69352438Y-112244094D02*
X69400057Y-112196475D01*
X69400057Y-112196475D02*
X69352438Y-112148856D01*
X69352438Y-112148856D02*
X69304819Y-112196475D01*
X69304819Y-112196475D02*
X69400057Y-112196475D01*
X69638152Y-111291714D02*
X70447676Y-111291714D01*
X70447676Y-111291714D02*
X70542914Y-111339333D01*
X70542914Y-111339333D02*
X70590533Y-111386952D01*
X70590533Y-111386952D02*
X70638152Y-111482190D01*
X70638152Y-111482190D02*
X70638152Y-111625047D01*
X70638152Y-111625047D02*
X70590533Y-111720285D01*
X70257200Y-111291714D02*
X70304819Y-111386952D01*
X70304819Y-111386952D02*
X70304819Y-111577428D01*
X70304819Y-111577428D02*
X70257200Y-111672666D01*
X70257200Y-111672666D02*
X70209580Y-111720285D01*
X70209580Y-111720285D02*
X70114342Y-111767904D01*
X70114342Y-111767904D02*
X69828628Y-111767904D01*
X69828628Y-111767904D02*
X69733390Y-111720285D01*
X69733390Y-111720285D02*
X69685771Y-111672666D01*
X69685771Y-111672666D02*
X69638152Y-111577428D01*
X69638152Y-111577428D02*
X69638152Y-111386952D01*
X69638152Y-111386952D02*
X69685771Y-111291714D01*
X70304819Y-110815523D02*
X69304819Y-110815523D01*
X70304819Y-110386952D02*
X69781009Y-110386952D01*
X69781009Y-110386952D02*
X69685771Y-110434571D01*
X69685771Y-110434571D02*
X69638152Y-110529809D01*
X69638152Y-110529809D02*
X69638152Y-110672666D01*
X69638152Y-110672666D02*
X69685771Y-110767904D01*
X69685771Y-110767904D02*
X69733390Y-110815523D01*
X69638152Y-110053618D02*
X69638152Y-109672666D01*
X69304819Y-109910761D02*
X70161961Y-109910761D01*
X70161961Y-109910761D02*
X70257200Y-109863142D01*
X70257200Y-109863142D02*
X70304819Y-109767904D01*
X70304819Y-109767904D02*
X70304819Y-109672666D01*
X69638152Y-108577427D02*
X70638152Y-108577427D01*
X69685771Y-108577427D02*
X69638152Y-108482189D01*
X69638152Y-108482189D02*
X69638152Y-108291713D01*
X69638152Y-108291713D02*
X69685771Y-108196475D01*
X69685771Y-108196475D02*
X69733390Y-108148856D01*
X69733390Y-108148856D02*
X69828628Y-108101237D01*
X69828628Y-108101237D02*
X70114342Y-108101237D01*
X70114342Y-108101237D02*
X70209580Y-108148856D01*
X70209580Y-108148856D02*
X70257200Y-108196475D01*
X70257200Y-108196475D02*
X70304819Y-108291713D01*
X70304819Y-108291713D02*
X70304819Y-108482189D01*
X70304819Y-108482189D02*
X70257200Y-108577427D01*
X70304819Y-107672665D02*
X69638152Y-107672665D01*
X69304819Y-107672665D02*
X69352438Y-107720284D01*
X69352438Y-107720284D02*
X69400057Y-107672665D01*
X69400057Y-107672665D02*
X69352438Y-107625046D01*
X69352438Y-107625046D02*
X69304819Y-107672665D01*
X69304819Y-107672665D02*
X69400057Y-107672665D01*
X69638152Y-107196475D02*
X70304819Y-107196475D01*
X69733390Y-107196475D02*
X69685771Y-107148856D01*
X69685771Y-107148856D02*
X69638152Y-107053618D01*
X69638152Y-107053618D02*
X69638152Y-106910761D01*
X69638152Y-106910761D02*
X69685771Y-106815523D01*
X69685771Y-106815523D02*
X69781009Y-106767904D01*
X69781009Y-106767904D02*
X70304819Y-106767904D01*
X70257200Y-106339332D02*
X70304819Y-106244094D01*
X70304819Y-106244094D02*
X70304819Y-106053618D01*
X70304819Y-106053618D02*
X70257200Y-105958380D01*
X70257200Y-105958380D02*
X70161961Y-105910761D01*
X70161961Y-105910761D02*
X70114342Y-105910761D01*
X70114342Y-105910761D02*
X70019104Y-105958380D01*
X70019104Y-105958380D02*
X69971485Y-106053618D01*
X69971485Y-106053618D02*
X69971485Y-106196475D01*
X69971485Y-106196475D02*
X69923866Y-106291713D01*
X69923866Y-106291713D02*
X69828628Y-106339332D01*
X69828628Y-106339332D02*
X69781009Y-106339332D01*
X69781009Y-106339332D02*
X69685771Y-106291713D01*
X69685771Y-106291713D02*
X69638152Y-106196475D01*
X69638152Y-106196475D02*
X69638152Y-106053618D01*
X69638152Y-106053618D02*
X69685771Y-105958380D01*
X70304819Y-104577427D02*
X70257200Y-104672665D01*
X70257200Y-104672665D02*
X70209580Y-104720284D01*
X70209580Y-104720284D02*
X70114342Y-104767903D01*
X70114342Y-104767903D02*
X69828628Y-104767903D01*
X69828628Y-104767903D02*
X69733390Y-104720284D01*
X69733390Y-104720284D02*
X69685771Y-104672665D01*
X69685771Y-104672665D02*
X69638152Y-104577427D01*
X69638152Y-104577427D02*
X69638152Y-104434570D01*
X69638152Y-104434570D02*
X69685771Y-104339332D01*
X69685771Y-104339332D02*
X69733390Y-104291713D01*
X69733390Y-104291713D02*
X69828628Y-104244094D01*
X69828628Y-104244094D02*
X70114342Y-104244094D01*
X70114342Y-104244094D02*
X70209580Y-104291713D01*
X70209580Y-104291713D02*
X70257200Y-104339332D01*
X70257200Y-104339332D02*
X70304819Y-104434570D01*
X70304819Y-104434570D02*
X70304819Y-104577427D01*
X69638152Y-103815522D02*
X70304819Y-103815522D01*
X69733390Y-103815522D02*
X69685771Y-103767903D01*
X69685771Y-103767903D02*
X69638152Y-103672665D01*
X69638152Y-103672665D02*
X69638152Y-103529808D01*
X69638152Y-103529808D02*
X69685771Y-103434570D01*
X69685771Y-103434570D02*
X69781009Y-103386951D01*
X69781009Y-103386951D02*
X70304819Y-103386951D01*
X69638152Y-102291712D02*
X69638152Y-101910760D01*
X69304819Y-102148855D02*
X70161961Y-102148855D01*
X70161961Y-102148855D02*
X70257200Y-102101236D01*
X70257200Y-102101236D02*
X70304819Y-102005998D01*
X70304819Y-102005998D02*
X70304819Y-101910760D01*
X70304819Y-101577426D02*
X69304819Y-101577426D01*
X70304819Y-101148855D02*
X69781009Y-101148855D01*
X69781009Y-101148855D02*
X69685771Y-101196474D01*
X69685771Y-101196474D02*
X69638152Y-101291712D01*
X69638152Y-101291712D02*
X69638152Y-101434569D01*
X69638152Y-101434569D02*
X69685771Y-101529807D01*
X69685771Y-101529807D02*
X69733390Y-101577426D01*
X70257200Y-100291712D02*
X70304819Y-100386950D01*
X70304819Y-100386950D02*
X70304819Y-100577426D01*
X70304819Y-100577426D02*
X70257200Y-100672664D01*
X70257200Y-100672664D02*
X70161961Y-100720283D01*
X70161961Y-100720283D02*
X69781009Y-100720283D01*
X69781009Y-100720283D02*
X69685771Y-100672664D01*
X69685771Y-100672664D02*
X69638152Y-100577426D01*
X69638152Y-100577426D02*
X69638152Y-100386950D01*
X69638152Y-100386950D02*
X69685771Y-100291712D01*
X69685771Y-100291712D02*
X69781009Y-100244093D01*
X69781009Y-100244093D02*
X69876247Y-100244093D01*
X69876247Y-100244093D02*
X69971485Y-100720283D01*
X70304819Y-98910759D02*
X70257200Y-99005997D01*
X70257200Y-99005997D02*
X70209580Y-99053616D01*
X70209580Y-99053616D02*
X70114342Y-99101235D01*
X70114342Y-99101235D02*
X69828628Y-99101235D01*
X69828628Y-99101235D02*
X69733390Y-99053616D01*
X69733390Y-99053616D02*
X69685771Y-99005997D01*
X69685771Y-99005997D02*
X69638152Y-98910759D01*
X69638152Y-98910759D02*
X69638152Y-98767902D01*
X69638152Y-98767902D02*
X69685771Y-98672664D01*
X69685771Y-98672664D02*
X69733390Y-98625045D01*
X69733390Y-98625045D02*
X69828628Y-98577426D01*
X69828628Y-98577426D02*
X70114342Y-98577426D01*
X70114342Y-98577426D02*
X70209580Y-98625045D01*
X70209580Y-98625045D02*
X70257200Y-98672664D01*
X70257200Y-98672664D02*
X70304819Y-98767902D01*
X70304819Y-98767902D02*
X70304819Y-98910759D01*
X69638152Y-97720283D02*
X70304819Y-97720283D01*
X69638152Y-98148854D02*
X70161961Y-98148854D01*
X70161961Y-98148854D02*
X70257200Y-98101235D01*
X70257200Y-98101235D02*
X70304819Y-98005997D01*
X70304819Y-98005997D02*
X70304819Y-97863140D01*
X70304819Y-97863140D02*
X70257200Y-97767902D01*
X70257200Y-97767902D02*
X70209580Y-97720283D01*
X69638152Y-97386949D02*
X69638152Y-97005997D01*
X69304819Y-97244092D02*
X70161961Y-97244092D01*
X70161961Y-97244092D02*
X70257200Y-97196473D01*
X70257200Y-97196473D02*
X70304819Y-97101235D01*
X70304819Y-97101235D02*
X70304819Y-97005997D01*
X70257200Y-96720282D02*
X70304819Y-96625044D01*
X70304819Y-96625044D02*
X70304819Y-96434568D01*
X70304819Y-96434568D02*
X70257200Y-96339330D01*
X70257200Y-96339330D02*
X70161961Y-96291711D01*
X70161961Y-96291711D02*
X70114342Y-96291711D01*
X70114342Y-96291711D02*
X70019104Y-96339330D01*
X70019104Y-96339330D02*
X69971485Y-96434568D01*
X69971485Y-96434568D02*
X69971485Y-96577425D01*
X69971485Y-96577425D02*
X69923866Y-96672663D01*
X69923866Y-96672663D02*
X69828628Y-96720282D01*
X69828628Y-96720282D02*
X69781009Y-96720282D01*
X69781009Y-96720282D02*
X69685771Y-96672663D01*
X69685771Y-96672663D02*
X69638152Y-96577425D01*
X69638152Y-96577425D02*
X69638152Y-96434568D01*
X69638152Y-96434568D02*
X69685771Y-96339330D01*
X70304819Y-95863139D02*
X69638152Y-95863139D01*
X69304819Y-95863139D02*
X69352438Y-95910758D01*
X69352438Y-95910758D02*
X69400057Y-95863139D01*
X69400057Y-95863139D02*
X69352438Y-95815520D01*
X69352438Y-95815520D02*
X69304819Y-95863139D01*
X69304819Y-95863139D02*
X69400057Y-95863139D01*
X70304819Y-94958378D02*
X69304819Y-94958378D01*
X70257200Y-94958378D02*
X70304819Y-95053616D01*
X70304819Y-95053616D02*
X70304819Y-95244092D01*
X70304819Y-95244092D02*
X70257200Y-95339330D01*
X70257200Y-95339330D02*
X70209580Y-95386949D01*
X70209580Y-95386949D02*
X70114342Y-95434568D01*
X70114342Y-95434568D02*
X69828628Y-95434568D01*
X69828628Y-95434568D02*
X69733390Y-95386949D01*
X69733390Y-95386949D02*
X69685771Y-95339330D01*
X69685771Y-95339330D02*
X69638152Y-95244092D01*
X69638152Y-95244092D02*
X69638152Y-95053616D01*
X69638152Y-95053616D02*
X69685771Y-94958378D01*
X70257200Y-94101235D02*
X70304819Y-94196473D01*
X70304819Y-94196473D02*
X70304819Y-94386949D01*
X70304819Y-94386949D02*
X70257200Y-94482187D01*
X70257200Y-94482187D02*
X70161961Y-94529806D01*
X70161961Y-94529806D02*
X69781009Y-94529806D01*
X69781009Y-94529806D02*
X69685771Y-94482187D01*
X69685771Y-94482187D02*
X69638152Y-94386949D01*
X69638152Y-94386949D02*
X69638152Y-94196473D01*
X69638152Y-94196473D02*
X69685771Y-94101235D01*
X69685771Y-94101235D02*
X69781009Y-94053616D01*
X69781009Y-94053616D02*
X69876247Y-94053616D01*
X69876247Y-94053616D02*
X69971485Y-94529806D01*
D12*
X72390000Y-92302000D02*
X73720000Y-92302000D01*
X73720000Y-92302000D02*
X73720000Y-93632000D01*
X73720000Y-94902000D02*
X73720000Y-130522000D01*
X71060000Y-130522000D02*
X73720000Y-130522000D01*
X71060000Y-94902000D02*
X71060000Y-130522000D01*
X71060000Y-94902000D02*
X73720000Y-94902000D01*
X48170000Y-94902000D02*
X50830000Y-94902000D01*
X48170000Y-94902000D02*
X48170000Y-130522000D01*
X48170000Y-130522000D02*
X50830000Y-130522000D01*
X50830000Y-94902000D02*
X50830000Y-130522000D01*
X50830000Y-92302000D02*
X50830000Y-93632000D01*
X49500000Y-92302000D02*
X50830000Y-92302000D01*
X45470000Y-94902000D02*
X48130000Y-94902000D01*
X45470000Y-94902000D02*
X45470000Y-130522000D01*
X45470000Y-130522000D02*
X48130000Y-130522000D01*
X48130000Y-94902000D02*
X48130000Y-130522000D01*
X48130000Y-92302000D02*
X48130000Y-93632000D01*
X46800000Y-92302000D02*
X48130000Y-92302000D01*
X75000000Y-92302000D02*
X76330000Y-92302000D01*
X76330000Y-92302000D02*
X76330000Y-93632000D01*
X76330000Y-94902000D02*
X76330000Y-130522000D01*
X73670000Y-130522000D02*
X76330000Y-130522000D01*
X73670000Y-94902000D02*
X73670000Y-130522000D01*
X73670000Y-94902000D02*
X76330000Y-94902000D01*
%LPC*%
D13*
X72390000Y-129192000D03*
X72390000Y-126652000D03*
X72390000Y-124112000D03*
X72390000Y-121572000D03*
X72390000Y-119032000D03*
X72390000Y-116492000D03*
X72390000Y-113952000D03*
X72390000Y-111412000D03*
X72390000Y-108872000D03*
X72390000Y-106332000D03*
X72390000Y-103792000D03*
X72390000Y-101252000D03*
X72390000Y-98712000D03*
X72390000Y-96172000D03*
D14*
X72390000Y-93632000D03*
X49500000Y-93632000D03*
D13*
X49500000Y-96172000D03*
X49500000Y-98712000D03*
X49500000Y-101252000D03*
X49500000Y-103792000D03*
X49500000Y-106332000D03*
X49500000Y-108872000D03*
X49500000Y-111412000D03*
X49500000Y-113952000D03*
X49500000Y-116492000D03*
X49500000Y-119032000D03*
X49500000Y-121572000D03*
X49500000Y-124112000D03*
X49500000Y-126652000D03*
X49500000Y-129192000D03*
D14*
X46800000Y-93632000D03*
D13*
X46800000Y-96172000D03*
X46800000Y-98712000D03*
X46800000Y-101252000D03*
X46800000Y-103792000D03*
X46800000Y-106332000D03*
X46800000Y-108872000D03*
X46800000Y-111412000D03*
X46800000Y-113952000D03*
X46800000Y-116492000D03*
X46800000Y-119032000D03*
X46800000Y-121572000D03*
X46800000Y-124112000D03*
X46800000Y-126652000D03*
X46800000Y-129192000D03*
X75000000Y-129192000D03*
X75000000Y-126652000D03*
X75000000Y-124112000D03*
X75000000Y-121572000D03*
X75000000Y-119032000D03*
X75000000Y-116492000D03*
X75000000Y-113952000D03*
X75000000Y-111412000D03*
X75000000Y-108872000D03*
X75000000Y-106332000D03*
X75000000Y-103792000D03*
X75000000Y-101252000D03*
X75000000Y-98712000D03*
X75000000Y-96172000D03*
D14*
X75000000Y-93632000D03*
%LPD*%
M02*
