G04 #@! TF.GenerationSoftware,KiCad,Pcbnew,8.0.8*
G04 #@! TF.CreationDate,2025-03-21T10:39:09+00:00*
G04 #@! TF.ProjectId,ESP8266adapt_PCB01,45535038-3236-4366-9164-6170745f5043,rev?*
G04 #@! TF.SameCoordinates,Original*
G04 #@! TF.FileFunction,Legend,Bot*
G04 #@! TF.FilePolarity,Positive*
%FSLAX46Y46*%
G04 Gerber Fmt 4.6, Leading zero omitted, Abs format (unit mm)*
G04 Created by KiCad (PCBNEW 8.0.8) date 2025-03-21 10:39:09*
%MOMM*%
%LPD*%
G01*
G04 APERTURE LIST*
%ADD10C,0.400000*%
%ADD11C,0.150000*%
%ADD12O,1.700000X1.700000*%
%ADD13R,1.700000X1.700000*%
G04 APERTURE END LIST*
D10*
X57841732Y-101815524D02*
X57746494Y-101606000D01*
X57746494Y-101606000D02*
X57746494Y-101291714D01*
X57746494Y-101291714D02*
X57841732Y-100977429D01*
X57841732Y-100977429D02*
X58032208Y-100767905D01*
X58032208Y-100767905D02*
X58222684Y-100663143D01*
X58222684Y-100663143D02*
X58603636Y-100558381D01*
X58603636Y-100558381D02*
X58889351Y-100558381D01*
X58889351Y-100558381D02*
X59270303Y-100663143D01*
X59270303Y-100663143D02*
X59460779Y-100767905D01*
X59460779Y-100767905D02*
X59651256Y-100977429D01*
X59651256Y-100977429D02*
X59746494Y-101291714D01*
X59746494Y-101291714D02*
X59746494Y-101501238D01*
X59746494Y-101501238D02*
X59651256Y-101815524D01*
X59651256Y-101815524D02*
X59556017Y-101920286D01*
X59556017Y-101920286D02*
X58889351Y-101920286D01*
X58889351Y-101920286D02*
X58889351Y-101501238D01*
X59651256Y-103701238D02*
X59746494Y-103491714D01*
X59746494Y-103491714D02*
X59746494Y-103072667D01*
X59746494Y-103072667D02*
X59651256Y-102863143D01*
X59651256Y-102863143D02*
X59460779Y-102758381D01*
X59460779Y-102758381D02*
X58698875Y-102758381D01*
X58698875Y-102758381D02*
X58508398Y-102863143D01*
X58508398Y-102863143D02*
X58413160Y-103072667D01*
X58413160Y-103072667D02*
X58413160Y-103491714D01*
X58413160Y-103491714D02*
X58508398Y-103701238D01*
X58508398Y-103701238D02*
X58698875Y-103806000D01*
X58698875Y-103806000D02*
X58889351Y-103806000D01*
X58889351Y-103806000D02*
X59079827Y-102758381D01*
X59746494Y-105063143D02*
X59651256Y-104853619D01*
X59651256Y-104853619D02*
X59556017Y-104748857D01*
X59556017Y-104748857D02*
X59365541Y-104644095D01*
X59365541Y-104644095D02*
X58794113Y-104644095D01*
X58794113Y-104644095D02*
X58603636Y-104748857D01*
X58603636Y-104748857D02*
X58508398Y-104853619D01*
X58508398Y-104853619D02*
X58413160Y-105063143D01*
X58413160Y-105063143D02*
X58413160Y-105377428D01*
X58413160Y-105377428D02*
X58508398Y-105586952D01*
X58508398Y-105586952D02*
X58603636Y-105691714D01*
X58603636Y-105691714D02*
X58794113Y-105796476D01*
X58794113Y-105796476D02*
X59365541Y-105796476D01*
X59365541Y-105796476D02*
X59556017Y-105691714D01*
X59556017Y-105691714D02*
X59651256Y-105586952D01*
X59651256Y-105586952D02*
X59746494Y-105377428D01*
X59746494Y-105377428D02*
X59746494Y-105063143D01*
X58413160Y-106425047D02*
X58413160Y-107263143D01*
X59746494Y-106739333D02*
X58032208Y-106739333D01*
X58032208Y-106739333D02*
X57841732Y-106844095D01*
X57841732Y-106844095D02*
X57746494Y-107053619D01*
X57746494Y-107053619D02*
X57746494Y-107263143D01*
X58413160Y-107682190D02*
X58413160Y-108520286D01*
X59746494Y-107996476D02*
X58032208Y-107996476D01*
X58032208Y-107996476D02*
X57841732Y-108101238D01*
X57841732Y-108101238D02*
X57746494Y-108310762D01*
X57746494Y-108310762D02*
X57746494Y-108520286D01*
X58698875Y-111663142D02*
X58794113Y-111977428D01*
X58794113Y-111977428D02*
X58889351Y-112082190D01*
X58889351Y-112082190D02*
X59079827Y-112186952D01*
X59079827Y-112186952D02*
X59365541Y-112186952D01*
X59365541Y-112186952D02*
X59556017Y-112082190D01*
X59556017Y-112082190D02*
X59651256Y-111977428D01*
X59651256Y-111977428D02*
X59746494Y-111767904D01*
X59746494Y-111767904D02*
X59746494Y-110929809D01*
X59746494Y-110929809D02*
X57746494Y-110929809D01*
X57746494Y-110929809D02*
X57746494Y-111663142D01*
X57746494Y-111663142D02*
X57841732Y-111872666D01*
X57841732Y-111872666D02*
X57936970Y-111977428D01*
X57936970Y-111977428D02*
X58127446Y-112082190D01*
X58127446Y-112082190D02*
X58317922Y-112082190D01*
X58317922Y-112082190D02*
X58508398Y-111977428D01*
X58508398Y-111977428D02*
X58603636Y-111872666D01*
X58603636Y-111872666D02*
X58698875Y-111663142D01*
X58698875Y-111663142D02*
X58698875Y-110929809D01*
X59746494Y-113129809D02*
X58413160Y-113129809D01*
X58794113Y-113129809D02*
X58603636Y-113234571D01*
X58603636Y-113234571D02*
X58508398Y-113339333D01*
X58508398Y-113339333D02*
X58413160Y-113548857D01*
X58413160Y-113548857D02*
X58413160Y-113758380D01*
X59746494Y-114491714D02*
X58413160Y-114491714D01*
X57746494Y-114491714D02*
X57841732Y-114386952D01*
X57841732Y-114386952D02*
X57936970Y-114491714D01*
X57936970Y-114491714D02*
X57841732Y-114596476D01*
X57841732Y-114596476D02*
X57746494Y-114491714D01*
X57746494Y-114491714D02*
X57936970Y-114491714D01*
X59651256Y-116482190D02*
X59746494Y-116272666D01*
X59746494Y-116272666D02*
X59746494Y-115853619D01*
X59746494Y-115853619D02*
X59651256Y-115644095D01*
X59651256Y-115644095D02*
X59556017Y-115539333D01*
X59556017Y-115539333D02*
X59365541Y-115434571D01*
X59365541Y-115434571D02*
X58794113Y-115434571D01*
X58794113Y-115434571D02*
X58603636Y-115539333D01*
X58603636Y-115539333D02*
X58508398Y-115644095D01*
X58508398Y-115644095D02*
X58413160Y-115853619D01*
X58413160Y-115853619D02*
X58413160Y-116272666D01*
X58413160Y-116272666D02*
X58508398Y-116482190D01*
X59746494Y-117425047D02*
X57746494Y-117425047D01*
X58984589Y-117634571D02*
X59746494Y-118263142D01*
X58413160Y-118263142D02*
X59175065Y-117425047D01*
X59651256Y-120044094D02*
X59746494Y-119834570D01*
X59746494Y-119834570D02*
X59746494Y-119415523D01*
X59746494Y-119415523D02*
X59651256Y-119205999D01*
X59651256Y-119205999D02*
X59460779Y-119101237D01*
X59460779Y-119101237D02*
X58698875Y-119101237D01*
X58698875Y-119101237D02*
X58508398Y-119205999D01*
X58508398Y-119205999D02*
X58413160Y-119415523D01*
X58413160Y-119415523D02*
X58413160Y-119834570D01*
X58413160Y-119834570D02*
X58508398Y-120044094D01*
X58508398Y-120044094D02*
X58698875Y-120148856D01*
X58698875Y-120148856D02*
X58889351Y-120148856D01*
X58889351Y-120148856D02*
X59079827Y-119101237D01*
X59746494Y-121405999D02*
X59651256Y-121196475D01*
X59651256Y-121196475D02*
X59460779Y-121091713D01*
X59460779Y-121091713D02*
X57746494Y-121091713D01*
X59746494Y-122558380D02*
X59651256Y-122348856D01*
X59651256Y-122348856D02*
X59460779Y-122244094D01*
X59460779Y-122244094D02*
X57746494Y-122244094D01*
X62871144Y-96891715D02*
X62966382Y-96682191D01*
X62966382Y-96682191D02*
X62966382Y-96263144D01*
X62966382Y-96263144D02*
X62871144Y-96053620D01*
X62871144Y-96053620D02*
X62775905Y-95948858D01*
X62775905Y-95948858D02*
X62585429Y-95844096D01*
X62585429Y-95844096D02*
X62014001Y-95844096D01*
X62014001Y-95844096D02*
X61823524Y-95948858D01*
X61823524Y-95948858D02*
X61728286Y-96053620D01*
X61728286Y-96053620D02*
X61633048Y-96263144D01*
X61633048Y-96263144D02*
X61633048Y-96682191D01*
X61633048Y-96682191D02*
X61728286Y-96891715D01*
X62966382Y-98148858D02*
X62871144Y-97939334D01*
X62871144Y-97939334D02*
X62775905Y-97834572D01*
X62775905Y-97834572D02*
X62585429Y-97729810D01*
X62585429Y-97729810D02*
X62014001Y-97729810D01*
X62014001Y-97729810D02*
X61823524Y-97834572D01*
X61823524Y-97834572D02*
X61728286Y-97939334D01*
X61728286Y-97939334D02*
X61633048Y-98148858D01*
X61633048Y-98148858D02*
X61633048Y-98463143D01*
X61633048Y-98463143D02*
X61728286Y-98672667D01*
X61728286Y-98672667D02*
X61823524Y-98777429D01*
X61823524Y-98777429D02*
X62014001Y-98882191D01*
X62014001Y-98882191D02*
X62585429Y-98882191D01*
X62585429Y-98882191D02*
X62775905Y-98777429D01*
X62775905Y-98777429D02*
X62871144Y-98672667D01*
X62871144Y-98672667D02*
X62966382Y-98463143D01*
X62966382Y-98463143D02*
X62966382Y-98148858D01*
X61633048Y-99825048D02*
X63633048Y-99825048D01*
X61728286Y-99825048D02*
X61633048Y-100034572D01*
X61633048Y-100034572D02*
X61633048Y-100453619D01*
X61633048Y-100453619D02*
X61728286Y-100663143D01*
X61728286Y-100663143D02*
X61823524Y-100767905D01*
X61823524Y-100767905D02*
X62014001Y-100872667D01*
X62014001Y-100872667D02*
X62585429Y-100872667D01*
X62585429Y-100872667D02*
X62775905Y-100767905D01*
X62775905Y-100767905D02*
X62871144Y-100663143D01*
X62871144Y-100663143D02*
X62966382Y-100453619D01*
X62966382Y-100453619D02*
X62966382Y-100034572D01*
X62966382Y-100034572D02*
X62871144Y-99825048D01*
X61633048Y-101606000D02*
X62966382Y-102129810D01*
X61633048Y-102653619D02*
X62966382Y-102129810D01*
X62966382Y-102129810D02*
X63442572Y-101920286D01*
X63442572Y-101920286D02*
X63537810Y-101815524D01*
X63537810Y-101815524D02*
X63633048Y-101606000D01*
X62966382Y-103491714D02*
X61633048Y-103491714D01*
X62014001Y-103491714D02*
X61823524Y-103596476D01*
X61823524Y-103596476D02*
X61728286Y-103701238D01*
X61728286Y-103701238D02*
X61633048Y-103910762D01*
X61633048Y-103910762D02*
X61633048Y-104120285D01*
X62966382Y-104853619D02*
X61633048Y-104853619D01*
X60966382Y-104853619D02*
X61061620Y-104748857D01*
X61061620Y-104748857D02*
X61156858Y-104853619D01*
X61156858Y-104853619D02*
X61061620Y-104958381D01*
X61061620Y-104958381D02*
X60966382Y-104853619D01*
X60966382Y-104853619D02*
X61156858Y-104853619D01*
X61633048Y-106844095D02*
X63252096Y-106844095D01*
X63252096Y-106844095D02*
X63442572Y-106739333D01*
X63442572Y-106739333D02*
X63537810Y-106634571D01*
X63537810Y-106634571D02*
X63633048Y-106425048D01*
X63633048Y-106425048D02*
X63633048Y-106110762D01*
X63633048Y-106110762D02*
X63537810Y-105901238D01*
X62871144Y-106844095D02*
X62966382Y-106634571D01*
X62966382Y-106634571D02*
X62966382Y-106215524D01*
X62966382Y-106215524D02*
X62871144Y-106006000D01*
X62871144Y-106006000D02*
X62775905Y-105901238D01*
X62775905Y-105901238D02*
X62585429Y-105796476D01*
X62585429Y-105796476D02*
X62014001Y-105796476D01*
X62014001Y-105796476D02*
X61823524Y-105901238D01*
X61823524Y-105901238D02*
X61728286Y-106006000D01*
X61728286Y-106006000D02*
X61633048Y-106215524D01*
X61633048Y-106215524D02*
X61633048Y-106634571D01*
X61633048Y-106634571D02*
X61728286Y-106844095D01*
X62966382Y-107891714D02*
X60966382Y-107891714D01*
X62966382Y-108834571D02*
X61918763Y-108834571D01*
X61918763Y-108834571D02*
X61728286Y-108729809D01*
X61728286Y-108729809D02*
X61633048Y-108520285D01*
X61633048Y-108520285D02*
X61633048Y-108206000D01*
X61633048Y-108206000D02*
X61728286Y-107996476D01*
X61728286Y-107996476D02*
X61823524Y-107891714D01*
X61633048Y-109567904D02*
X61633048Y-110406000D01*
X60966382Y-109882190D02*
X62680667Y-109882190D01*
X62680667Y-109882190D02*
X62871144Y-109986952D01*
X62871144Y-109986952D02*
X62966382Y-110196476D01*
X62966382Y-110196476D02*
X62966382Y-110406000D01*
X61156858Y-112710761D02*
X61061620Y-112815523D01*
X61061620Y-112815523D02*
X60966382Y-113025047D01*
X60966382Y-113025047D02*
X60966382Y-113548856D01*
X60966382Y-113548856D02*
X61061620Y-113758380D01*
X61061620Y-113758380D02*
X61156858Y-113863142D01*
X61156858Y-113863142D02*
X61347334Y-113967904D01*
X61347334Y-113967904D02*
X61537810Y-113967904D01*
X61537810Y-113967904D02*
X61823524Y-113863142D01*
X61823524Y-113863142D02*
X62966382Y-112605999D01*
X62966382Y-112605999D02*
X62966382Y-113967904D01*
X60966382Y-115329809D02*
X60966382Y-115539332D01*
X60966382Y-115539332D02*
X61061620Y-115748856D01*
X61061620Y-115748856D02*
X61156858Y-115853618D01*
X61156858Y-115853618D02*
X61347334Y-115958380D01*
X61347334Y-115958380D02*
X61728286Y-116063142D01*
X61728286Y-116063142D02*
X62204477Y-116063142D01*
X62204477Y-116063142D02*
X62585429Y-115958380D01*
X62585429Y-115958380D02*
X62775905Y-115853618D01*
X62775905Y-115853618D02*
X62871144Y-115748856D01*
X62871144Y-115748856D02*
X62966382Y-115539332D01*
X62966382Y-115539332D02*
X62966382Y-115329809D01*
X62966382Y-115329809D02*
X62871144Y-115120285D01*
X62871144Y-115120285D02*
X62775905Y-115015523D01*
X62775905Y-115015523D02*
X62585429Y-114910761D01*
X62585429Y-114910761D02*
X62204477Y-114805999D01*
X62204477Y-114805999D02*
X61728286Y-114805999D01*
X61728286Y-114805999D02*
X61347334Y-114910761D01*
X61347334Y-114910761D02*
X61156858Y-115015523D01*
X61156858Y-115015523D02*
X61061620Y-115120285D01*
X61061620Y-115120285D02*
X60966382Y-115329809D01*
X61156858Y-116901237D02*
X61061620Y-117005999D01*
X61061620Y-117005999D02*
X60966382Y-117215523D01*
X60966382Y-117215523D02*
X60966382Y-117739332D01*
X60966382Y-117739332D02*
X61061620Y-117948856D01*
X61061620Y-117948856D02*
X61156858Y-118053618D01*
X61156858Y-118053618D02*
X61347334Y-118158380D01*
X61347334Y-118158380D02*
X61537810Y-118158380D01*
X61537810Y-118158380D02*
X61823524Y-118053618D01*
X61823524Y-118053618D02*
X62966382Y-116796475D01*
X62966382Y-116796475D02*
X62966382Y-118158380D01*
X62966382Y-120253618D02*
X62966382Y-118996475D01*
X62966382Y-119625047D02*
X60966382Y-119625047D01*
X60966382Y-119625047D02*
X61252096Y-119415523D01*
X61252096Y-119415523D02*
X61442572Y-119205999D01*
X61442572Y-119205999D02*
X61537810Y-118996475D01*
X62204477Y-121196475D02*
X62204477Y-122872666D01*
X61156858Y-123815523D02*
X61061620Y-123920285D01*
X61061620Y-123920285D02*
X60966382Y-124129809D01*
X60966382Y-124129809D02*
X60966382Y-124653618D01*
X60966382Y-124653618D02*
X61061620Y-124863142D01*
X61061620Y-124863142D02*
X61156858Y-124967904D01*
X61156858Y-124967904D02*
X61347334Y-125072666D01*
X61347334Y-125072666D02*
X61537810Y-125072666D01*
X61537810Y-125072666D02*
X61823524Y-124967904D01*
X61823524Y-124967904D02*
X62966382Y-123710761D01*
X62966382Y-123710761D02*
X62966382Y-125072666D01*
X60966382Y-127063142D02*
X60966382Y-126015523D01*
X60966382Y-126015523D02*
X61918763Y-125910761D01*
X61918763Y-125910761D02*
X61823524Y-126015523D01*
X61823524Y-126015523D02*
X61728286Y-126225047D01*
X61728286Y-126225047D02*
X61728286Y-126748856D01*
X61728286Y-126748856D02*
X61823524Y-126958380D01*
X61823524Y-126958380D02*
X61918763Y-127063142D01*
X61918763Y-127063142D02*
X62109239Y-127167904D01*
X62109239Y-127167904D02*
X62585429Y-127167904D01*
X62585429Y-127167904D02*
X62775905Y-127063142D01*
X62775905Y-127063142D02*
X62871144Y-126958380D01*
X62871144Y-126958380D02*
X62966382Y-126748856D01*
X62966382Y-126748856D02*
X62966382Y-126225047D01*
X62966382Y-126225047D02*
X62871144Y-126015523D01*
X62871144Y-126015523D02*
X62775905Y-125910761D01*
D11*
X69273009Y-102410761D02*
X69273009Y-102744094D01*
X69796819Y-102886951D02*
X69796819Y-102410761D01*
X69796819Y-102410761D02*
X68796819Y-102410761D01*
X68796819Y-102410761D02*
X68796819Y-102886951D01*
X69749200Y-103267904D02*
X69796819Y-103410761D01*
X69796819Y-103410761D02*
X69796819Y-103648856D01*
X69796819Y-103648856D02*
X69749200Y-103744094D01*
X69749200Y-103744094D02*
X69701580Y-103791713D01*
X69701580Y-103791713D02*
X69606342Y-103839332D01*
X69606342Y-103839332D02*
X69511104Y-103839332D01*
X69511104Y-103839332D02*
X69415866Y-103791713D01*
X69415866Y-103791713D02*
X69368247Y-103744094D01*
X69368247Y-103744094D02*
X69320628Y-103648856D01*
X69320628Y-103648856D02*
X69273009Y-103458380D01*
X69273009Y-103458380D02*
X69225390Y-103363142D01*
X69225390Y-103363142D02*
X69177771Y-103315523D01*
X69177771Y-103315523D02*
X69082533Y-103267904D01*
X69082533Y-103267904D02*
X68987295Y-103267904D01*
X68987295Y-103267904D02*
X68892057Y-103315523D01*
X68892057Y-103315523D02*
X68844438Y-103363142D01*
X68844438Y-103363142D02*
X68796819Y-103458380D01*
X68796819Y-103458380D02*
X68796819Y-103696475D01*
X68796819Y-103696475D02*
X68844438Y-103839332D01*
X69796819Y-104267904D02*
X68796819Y-104267904D01*
X68796819Y-104267904D02*
X68796819Y-104648856D01*
X68796819Y-104648856D02*
X68844438Y-104744094D01*
X68844438Y-104744094D02*
X68892057Y-104791713D01*
X68892057Y-104791713D02*
X68987295Y-104839332D01*
X68987295Y-104839332D02*
X69130152Y-104839332D01*
X69130152Y-104839332D02*
X69225390Y-104791713D01*
X69225390Y-104791713D02*
X69273009Y-104744094D01*
X69273009Y-104744094D02*
X69320628Y-104648856D01*
X69320628Y-104648856D02*
X69320628Y-104267904D01*
X69225390Y-105410761D02*
X69177771Y-105315523D01*
X69177771Y-105315523D02*
X69130152Y-105267904D01*
X69130152Y-105267904D02*
X69034914Y-105220285D01*
X69034914Y-105220285D02*
X68987295Y-105220285D01*
X68987295Y-105220285D02*
X68892057Y-105267904D01*
X68892057Y-105267904D02*
X68844438Y-105315523D01*
X68844438Y-105315523D02*
X68796819Y-105410761D01*
X68796819Y-105410761D02*
X68796819Y-105601237D01*
X68796819Y-105601237D02*
X68844438Y-105696475D01*
X68844438Y-105696475D02*
X68892057Y-105744094D01*
X68892057Y-105744094D02*
X68987295Y-105791713D01*
X68987295Y-105791713D02*
X69034914Y-105791713D01*
X69034914Y-105791713D02*
X69130152Y-105744094D01*
X69130152Y-105744094D02*
X69177771Y-105696475D01*
X69177771Y-105696475D02*
X69225390Y-105601237D01*
X69225390Y-105601237D02*
X69225390Y-105410761D01*
X69225390Y-105410761D02*
X69273009Y-105315523D01*
X69273009Y-105315523D02*
X69320628Y-105267904D01*
X69320628Y-105267904D02*
X69415866Y-105220285D01*
X69415866Y-105220285D02*
X69606342Y-105220285D01*
X69606342Y-105220285D02*
X69701580Y-105267904D01*
X69701580Y-105267904D02*
X69749200Y-105315523D01*
X69749200Y-105315523D02*
X69796819Y-105410761D01*
X69796819Y-105410761D02*
X69796819Y-105601237D01*
X69796819Y-105601237D02*
X69749200Y-105696475D01*
X69749200Y-105696475D02*
X69701580Y-105744094D01*
X69701580Y-105744094D02*
X69606342Y-105791713D01*
X69606342Y-105791713D02*
X69415866Y-105791713D01*
X69415866Y-105791713D02*
X69320628Y-105744094D01*
X69320628Y-105744094D02*
X69273009Y-105696475D01*
X69273009Y-105696475D02*
X69225390Y-105601237D01*
X68892057Y-106172666D02*
X68844438Y-106220285D01*
X68844438Y-106220285D02*
X68796819Y-106315523D01*
X68796819Y-106315523D02*
X68796819Y-106553618D01*
X68796819Y-106553618D02*
X68844438Y-106648856D01*
X68844438Y-106648856D02*
X68892057Y-106696475D01*
X68892057Y-106696475D02*
X68987295Y-106744094D01*
X68987295Y-106744094D02*
X69082533Y-106744094D01*
X69082533Y-106744094D02*
X69225390Y-106696475D01*
X69225390Y-106696475D02*
X69796819Y-106125047D01*
X69796819Y-106125047D02*
X69796819Y-106744094D01*
X68796819Y-107601237D02*
X68796819Y-107410761D01*
X68796819Y-107410761D02*
X68844438Y-107315523D01*
X68844438Y-107315523D02*
X68892057Y-107267904D01*
X68892057Y-107267904D02*
X69034914Y-107172666D01*
X69034914Y-107172666D02*
X69225390Y-107125047D01*
X69225390Y-107125047D02*
X69606342Y-107125047D01*
X69606342Y-107125047D02*
X69701580Y-107172666D01*
X69701580Y-107172666D02*
X69749200Y-107220285D01*
X69749200Y-107220285D02*
X69796819Y-107315523D01*
X69796819Y-107315523D02*
X69796819Y-107505999D01*
X69796819Y-107505999D02*
X69749200Y-107601237D01*
X69749200Y-107601237D02*
X69701580Y-107648856D01*
X69701580Y-107648856D02*
X69606342Y-107696475D01*
X69606342Y-107696475D02*
X69368247Y-107696475D01*
X69368247Y-107696475D02*
X69273009Y-107648856D01*
X69273009Y-107648856D02*
X69225390Y-107601237D01*
X69225390Y-107601237D02*
X69177771Y-107505999D01*
X69177771Y-107505999D02*
X69177771Y-107315523D01*
X69177771Y-107315523D02*
X69225390Y-107220285D01*
X69225390Y-107220285D02*
X69273009Y-107172666D01*
X69273009Y-107172666D02*
X69368247Y-107125047D01*
X68796819Y-108553618D02*
X68796819Y-108363142D01*
X68796819Y-108363142D02*
X68844438Y-108267904D01*
X68844438Y-108267904D02*
X68892057Y-108220285D01*
X68892057Y-108220285D02*
X69034914Y-108125047D01*
X69034914Y-108125047D02*
X69225390Y-108077428D01*
X69225390Y-108077428D02*
X69606342Y-108077428D01*
X69606342Y-108077428D02*
X69701580Y-108125047D01*
X69701580Y-108125047D02*
X69749200Y-108172666D01*
X69749200Y-108172666D02*
X69796819Y-108267904D01*
X69796819Y-108267904D02*
X69796819Y-108458380D01*
X69796819Y-108458380D02*
X69749200Y-108553618D01*
X69749200Y-108553618D02*
X69701580Y-108601237D01*
X69701580Y-108601237D02*
X69606342Y-108648856D01*
X69606342Y-108648856D02*
X69368247Y-108648856D01*
X69368247Y-108648856D02*
X69273009Y-108601237D01*
X69273009Y-108601237D02*
X69225390Y-108553618D01*
X69225390Y-108553618D02*
X69177771Y-108458380D01*
X69177771Y-108458380D02*
X69177771Y-108267904D01*
X69177771Y-108267904D02*
X69225390Y-108172666D01*
X69225390Y-108172666D02*
X69273009Y-108125047D01*
X69273009Y-108125047D02*
X69368247Y-108077428D01*
X69130152Y-109744095D02*
X69796819Y-109982190D01*
X69796819Y-109982190D02*
X69130152Y-110220285D01*
X69796819Y-111125047D02*
X69796819Y-110553619D01*
X69796819Y-110839333D02*
X68796819Y-110839333D01*
X68796819Y-110839333D02*
X68939676Y-110744095D01*
X68939676Y-110744095D02*
X69034914Y-110648857D01*
X69034914Y-110648857D02*
X69082533Y-110553619D01*
X69701580Y-111553619D02*
X69749200Y-111601238D01*
X69749200Y-111601238D02*
X69796819Y-111553619D01*
X69796819Y-111553619D02*
X69749200Y-111506000D01*
X69749200Y-111506000D02*
X69701580Y-111553619D01*
X69701580Y-111553619D02*
X69796819Y-111553619D01*
X68796819Y-112220285D02*
X68796819Y-112315523D01*
X68796819Y-112315523D02*
X68844438Y-112410761D01*
X68844438Y-112410761D02*
X68892057Y-112458380D01*
X68892057Y-112458380D02*
X68987295Y-112505999D01*
X68987295Y-112505999D02*
X69177771Y-112553618D01*
X69177771Y-112553618D02*
X69415866Y-112553618D01*
X69415866Y-112553618D02*
X69606342Y-112505999D01*
X69606342Y-112505999D02*
X69701580Y-112458380D01*
X69701580Y-112458380D02*
X69749200Y-112410761D01*
X69749200Y-112410761D02*
X69796819Y-112315523D01*
X69796819Y-112315523D02*
X69796819Y-112220285D01*
X69796819Y-112220285D02*
X69749200Y-112125047D01*
X69749200Y-112125047D02*
X69701580Y-112077428D01*
X69701580Y-112077428D02*
X69606342Y-112029809D01*
X69606342Y-112029809D02*
X69415866Y-111982190D01*
X69415866Y-111982190D02*
X69177771Y-111982190D01*
X69177771Y-111982190D02*
X68987295Y-112029809D01*
X68987295Y-112029809D02*
X68892057Y-112077428D01*
X68892057Y-112077428D02*
X68844438Y-112125047D01*
X68844438Y-112125047D02*
X68796819Y-112220285D01*
X69796819Y-113744095D02*
X69130152Y-113744095D01*
X69320628Y-113744095D02*
X69225390Y-113791714D01*
X69225390Y-113791714D02*
X69177771Y-113839333D01*
X69177771Y-113839333D02*
X69130152Y-113934571D01*
X69130152Y-113934571D02*
X69130152Y-114029809D01*
X69796819Y-114363143D02*
X69130152Y-114363143D01*
X68796819Y-114363143D02*
X68844438Y-114315524D01*
X68844438Y-114315524D02*
X68892057Y-114363143D01*
X68892057Y-114363143D02*
X68844438Y-114410762D01*
X68844438Y-114410762D02*
X68796819Y-114363143D01*
X68796819Y-114363143D02*
X68892057Y-114363143D01*
X69130152Y-115267904D02*
X69939676Y-115267904D01*
X69939676Y-115267904D02*
X70034914Y-115220285D01*
X70034914Y-115220285D02*
X70082533Y-115172666D01*
X70082533Y-115172666D02*
X70130152Y-115077428D01*
X70130152Y-115077428D02*
X70130152Y-114934571D01*
X70130152Y-114934571D02*
X70082533Y-114839333D01*
X69749200Y-115267904D02*
X69796819Y-115172666D01*
X69796819Y-115172666D02*
X69796819Y-114982190D01*
X69796819Y-114982190D02*
X69749200Y-114886952D01*
X69749200Y-114886952D02*
X69701580Y-114839333D01*
X69701580Y-114839333D02*
X69606342Y-114791714D01*
X69606342Y-114791714D02*
X69320628Y-114791714D01*
X69320628Y-114791714D02*
X69225390Y-114839333D01*
X69225390Y-114839333D02*
X69177771Y-114886952D01*
X69177771Y-114886952D02*
X69130152Y-114982190D01*
X69130152Y-114982190D02*
X69130152Y-115172666D01*
X69130152Y-115172666D02*
X69177771Y-115267904D01*
X69796819Y-115744095D02*
X68796819Y-115744095D01*
X69796819Y-116172666D02*
X69273009Y-116172666D01*
X69273009Y-116172666D02*
X69177771Y-116125047D01*
X69177771Y-116125047D02*
X69130152Y-116029809D01*
X69130152Y-116029809D02*
X69130152Y-115886952D01*
X69130152Y-115886952D02*
X69177771Y-115791714D01*
X69177771Y-115791714D02*
X69225390Y-115744095D01*
X69130152Y-116506000D02*
X69130152Y-116886952D01*
X68796819Y-116648857D02*
X69653961Y-116648857D01*
X69653961Y-116648857D02*
X69749200Y-116696476D01*
X69749200Y-116696476D02*
X69796819Y-116791714D01*
X69796819Y-116791714D02*
X69796819Y-116886952D01*
X69130152Y-117982191D02*
X70130152Y-117982191D01*
X69177771Y-117982191D02*
X69130152Y-118077429D01*
X69130152Y-118077429D02*
X69130152Y-118267905D01*
X69130152Y-118267905D02*
X69177771Y-118363143D01*
X69177771Y-118363143D02*
X69225390Y-118410762D01*
X69225390Y-118410762D02*
X69320628Y-118458381D01*
X69320628Y-118458381D02*
X69606342Y-118458381D01*
X69606342Y-118458381D02*
X69701580Y-118410762D01*
X69701580Y-118410762D02*
X69749200Y-118363143D01*
X69749200Y-118363143D02*
X69796819Y-118267905D01*
X69796819Y-118267905D02*
X69796819Y-118077429D01*
X69796819Y-118077429D02*
X69749200Y-117982191D01*
X69796819Y-118886953D02*
X69130152Y-118886953D01*
X68796819Y-118886953D02*
X68844438Y-118839334D01*
X68844438Y-118839334D02*
X68892057Y-118886953D01*
X68892057Y-118886953D02*
X68844438Y-118934572D01*
X68844438Y-118934572D02*
X68796819Y-118886953D01*
X68796819Y-118886953D02*
X68892057Y-118886953D01*
X69130152Y-119363143D02*
X69796819Y-119363143D01*
X69225390Y-119363143D02*
X69177771Y-119410762D01*
X69177771Y-119410762D02*
X69130152Y-119506000D01*
X69130152Y-119506000D02*
X69130152Y-119648857D01*
X69130152Y-119648857D02*
X69177771Y-119744095D01*
X69177771Y-119744095D02*
X69273009Y-119791714D01*
X69273009Y-119791714D02*
X69796819Y-119791714D01*
X69749200Y-120220286D02*
X69796819Y-120315524D01*
X69796819Y-120315524D02*
X69796819Y-120506000D01*
X69796819Y-120506000D02*
X69749200Y-120601238D01*
X69749200Y-120601238D02*
X69653961Y-120648857D01*
X69653961Y-120648857D02*
X69606342Y-120648857D01*
X69606342Y-120648857D02*
X69511104Y-120601238D01*
X69511104Y-120601238D02*
X69463485Y-120506000D01*
X69463485Y-120506000D02*
X69463485Y-120363143D01*
X69463485Y-120363143D02*
X69415866Y-120267905D01*
X69415866Y-120267905D02*
X69320628Y-120220286D01*
X69320628Y-120220286D02*
X69273009Y-120220286D01*
X69273009Y-120220286D02*
X69177771Y-120267905D01*
X69177771Y-120267905D02*
X69130152Y-120363143D01*
X69130152Y-120363143D02*
X69130152Y-120506000D01*
X69130152Y-120506000D02*
X69177771Y-120601238D01*
X52255009Y-102632951D02*
X52255009Y-102966284D01*
X52778819Y-103109141D02*
X52778819Y-102632951D01*
X52778819Y-102632951D02*
X51778819Y-102632951D01*
X51778819Y-102632951D02*
X51778819Y-103109141D01*
X52731200Y-103490094D02*
X52778819Y-103632951D01*
X52778819Y-103632951D02*
X52778819Y-103871046D01*
X52778819Y-103871046D02*
X52731200Y-103966284D01*
X52731200Y-103966284D02*
X52683580Y-104013903D01*
X52683580Y-104013903D02*
X52588342Y-104061522D01*
X52588342Y-104061522D02*
X52493104Y-104061522D01*
X52493104Y-104061522D02*
X52397866Y-104013903D01*
X52397866Y-104013903D02*
X52350247Y-103966284D01*
X52350247Y-103966284D02*
X52302628Y-103871046D01*
X52302628Y-103871046D02*
X52255009Y-103680570D01*
X52255009Y-103680570D02*
X52207390Y-103585332D01*
X52207390Y-103585332D02*
X52159771Y-103537713D01*
X52159771Y-103537713D02*
X52064533Y-103490094D01*
X52064533Y-103490094D02*
X51969295Y-103490094D01*
X51969295Y-103490094D02*
X51874057Y-103537713D01*
X51874057Y-103537713D02*
X51826438Y-103585332D01*
X51826438Y-103585332D02*
X51778819Y-103680570D01*
X51778819Y-103680570D02*
X51778819Y-103918665D01*
X51778819Y-103918665D02*
X51826438Y-104061522D01*
X52778819Y-104490094D02*
X51778819Y-104490094D01*
X51778819Y-104490094D02*
X51778819Y-104871046D01*
X51778819Y-104871046D02*
X51826438Y-104966284D01*
X51826438Y-104966284D02*
X51874057Y-105013903D01*
X51874057Y-105013903D02*
X51969295Y-105061522D01*
X51969295Y-105061522D02*
X52112152Y-105061522D01*
X52112152Y-105061522D02*
X52207390Y-105013903D01*
X52207390Y-105013903D02*
X52255009Y-104966284D01*
X52255009Y-104966284D02*
X52302628Y-104871046D01*
X52302628Y-104871046D02*
X52302628Y-104490094D01*
X52207390Y-105632951D02*
X52159771Y-105537713D01*
X52159771Y-105537713D02*
X52112152Y-105490094D01*
X52112152Y-105490094D02*
X52016914Y-105442475D01*
X52016914Y-105442475D02*
X51969295Y-105442475D01*
X51969295Y-105442475D02*
X51874057Y-105490094D01*
X51874057Y-105490094D02*
X51826438Y-105537713D01*
X51826438Y-105537713D02*
X51778819Y-105632951D01*
X51778819Y-105632951D02*
X51778819Y-105823427D01*
X51778819Y-105823427D02*
X51826438Y-105918665D01*
X51826438Y-105918665D02*
X51874057Y-105966284D01*
X51874057Y-105966284D02*
X51969295Y-106013903D01*
X51969295Y-106013903D02*
X52016914Y-106013903D01*
X52016914Y-106013903D02*
X52112152Y-105966284D01*
X52112152Y-105966284D02*
X52159771Y-105918665D01*
X52159771Y-105918665D02*
X52207390Y-105823427D01*
X52207390Y-105823427D02*
X52207390Y-105632951D01*
X52207390Y-105632951D02*
X52255009Y-105537713D01*
X52255009Y-105537713D02*
X52302628Y-105490094D01*
X52302628Y-105490094D02*
X52397866Y-105442475D01*
X52397866Y-105442475D02*
X52588342Y-105442475D01*
X52588342Y-105442475D02*
X52683580Y-105490094D01*
X52683580Y-105490094D02*
X52731200Y-105537713D01*
X52731200Y-105537713D02*
X52778819Y-105632951D01*
X52778819Y-105632951D02*
X52778819Y-105823427D01*
X52778819Y-105823427D02*
X52731200Y-105918665D01*
X52731200Y-105918665D02*
X52683580Y-105966284D01*
X52683580Y-105966284D02*
X52588342Y-106013903D01*
X52588342Y-106013903D02*
X52397866Y-106013903D01*
X52397866Y-106013903D02*
X52302628Y-105966284D01*
X52302628Y-105966284D02*
X52255009Y-105918665D01*
X52255009Y-105918665D02*
X52207390Y-105823427D01*
X51874057Y-106394856D02*
X51826438Y-106442475D01*
X51826438Y-106442475D02*
X51778819Y-106537713D01*
X51778819Y-106537713D02*
X51778819Y-106775808D01*
X51778819Y-106775808D02*
X51826438Y-106871046D01*
X51826438Y-106871046D02*
X51874057Y-106918665D01*
X51874057Y-106918665D02*
X51969295Y-106966284D01*
X51969295Y-106966284D02*
X52064533Y-106966284D01*
X52064533Y-106966284D02*
X52207390Y-106918665D01*
X52207390Y-106918665D02*
X52778819Y-106347237D01*
X52778819Y-106347237D02*
X52778819Y-106966284D01*
X51778819Y-107823427D02*
X51778819Y-107632951D01*
X51778819Y-107632951D02*
X51826438Y-107537713D01*
X51826438Y-107537713D02*
X51874057Y-107490094D01*
X51874057Y-107490094D02*
X52016914Y-107394856D01*
X52016914Y-107394856D02*
X52207390Y-107347237D01*
X52207390Y-107347237D02*
X52588342Y-107347237D01*
X52588342Y-107347237D02*
X52683580Y-107394856D01*
X52683580Y-107394856D02*
X52731200Y-107442475D01*
X52731200Y-107442475D02*
X52778819Y-107537713D01*
X52778819Y-107537713D02*
X52778819Y-107728189D01*
X52778819Y-107728189D02*
X52731200Y-107823427D01*
X52731200Y-107823427D02*
X52683580Y-107871046D01*
X52683580Y-107871046D02*
X52588342Y-107918665D01*
X52588342Y-107918665D02*
X52350247Y-107918665D01*
X52350247Y-107918665D02*
X52255009Y-107871046D01*
X52255009Y-107871046D02*
X52207390Y-107823427D01*
X52207390Y-107823427D02*
X52159771Y-107728189D01*
X52159771Y-107728189D02*
X52159771Y-107537713D01*
X52159771Y-107537713D02*
X52207390Y-107442475D01*
X52207390Y-107442475D02*
X52255009Y-107394856D01*
X52255009Y-107394856D02*
X52350247Y-107347237D01*
X51778819Y-108775808D02*
X51778819Y-108585332D01*
X51778819Y-108585332D02*
X51826438Y-108490094D01*
X51826438Y-108490094D02*
X51874057Y-108442475D01*
X51874057Y-108442475D02*
X52016914Y-108347237D01*
X52016914Y-108347237D02*
X52207390Y-108299618D01*
X52207390Y-108299618D02*
X52588342Y-108299618D01*
X52588342Y-108299618D02*
X52683580Y-108347237D01*
X52683580Y-108347237D02*
X52731200Y-108394856D01*
X52731200Y-108394856D02*
X52778819Y-108490094D01*
X52778819Y-108490094D02*
X52778819Y-108680570D01*
X52778819Y-108680570D02*
X52731200Y-108775808D01*
X52731200Y-108775808D02*
X52683580Y-108823427D01*
X52683580Y-108823427D02*
X52588342Y-108871046D01*
X52588342Y-108871046D02*
X52350247Y-108871046D01*
X52350247Y-108871046D02*
X52255009Y-108823427D01*
X52255009Y-108823427D02*
X52207390Y-108775808D01*
X52207390Y-108775808D02*
X52159771Y-108680570D01*
X52159771Y-108680570D02*
X52159771Y-108490094D01*
X52159771Y-108490094D02*
X52207390Y-108394856D01*
X52207390Y-108394856D02*
X52255009Y-108347237D01*
X52255009Y-108347237D02*
X52350247Y-108299618D01*
X52112152Y-109966285D02*
X52778819Y-110204380D01*
X52778819Y-110204380D02*
X52112152Y-110442475D01*
X52778819Y-111347237D02*
X52778819Y-110775809D01*
X52778819Y-111061523D02*
X51778819Y-111061523D01*
X51778819Y-111061523D02*
X51921676Y-110966285D01*
X51921676Y-110966285D02*
X52016914Y-110871047D01*
X52016914Y-110871047D02*
X52064533Y-110775809D01*
X52683580Y-111775809D02*
X52731200Y-111823428D01*
X52731200Y-111823428D02*
X52778819Y-111775809D01*
X52778819Y-111775809D02*
X52731200Y-111728190D01*
X52731200Y-111728190D02*
X52683580Y-111775809D01*
X52683580Y-111775809D02*
X52778819Y-111775809D01*
X51778819Y-112442475D02*
X51778819Y-112537713D01*
X51778819Y-112537713D02*
X51826438Y-112632951D01*
X51826438Y-112632951D02*
X51874057Y-112680570D01*
X51874057Y-112680570D02*
X51969295Y-112728189D01*
X51969295Y-112728189D02*
X52159771Y-112775808D01*
X52159771Y-112775808D02*
X52397866Y-112775808D01*
X52397866Y-112775808D02*
X52588342Y-112728189D01*
X52588342Y-112728189D02*
X52683580Y-112680570D01*
X52683580Y-112680570D02*
X52731200Y-112632951D01*
X52731200Y-112632951D02*
X52778819Y-112537713D01*
X52778819Y-112537713D02*
X52778819Y-112442475D01*
X52778819Y-112442475D02*
X52731200Y-112347237D01*
X52731200Y-112347237D02*
X52683580Y-112299618D01*
X52683580Y-112299618D02*
X52588342Y-112251999D01*
X52588342Y-112251999D02*
X52397866Y-112204380D01*
X52397866Y-112204380D02*
X52159771Y-112204380D01*
X52159771Y-112204380D02*
X51969295Y-112251999D01*
X51969295Y-112251999D02*
X51874057Y-112299618D01*
X51874057Y-112299618D02*
X51826438Y-112347237D01*
X51826438Y-112347237D02*
X51778819Y-112442475D01*
X52778819Y-114109142D02*
X52731200Y-114013904D01*
X52731200Y-114013904D02*
X52635961Y-113966285D01*
X52635961Y-113966285D02*
X51778819Y-113966285D01*
X52731200Y-114871047D02*
X52778819Y-114775809D01*
X52778819Y-114775809D02*
X52778819Y-114585333D01*
X52778819Y-114585333D02*
X52731200Y-114490095D01*
X52731200Y-114490095D02*
X52635961Y-114442476D01*
X52635961Y-114442476D02*
X52255009Y-114442476D01*
X52255009Y-114442476D02*
X52159771Y-114490095D01*
X52159771Y-114490095D02*
X52112152Y-114585333D01*
X52112152Y-114585333D02*
X52112152Y-114775809D01*
X52112152Y-114775809D02*
X52159771Y-114871047D01*
X52159771Y-114871047D02*
X52255009Y-114918666D01*
X52255009Y-114918666D02*
X52350247Y-114918666D01*
X52350247Y-114918666D02*
X52445485Y-114442476D01*
X52112152Y-115204381D02*
X52112152Y-115585333D01*
X52778819Y-115347238D02*
X51921676Y-115347238D01*
X51921676Y-115347238D02*
X51826438Y-115394857D01*
X51826438Y-115394857D02*
X51778819Y-115490095D01*
X51778819Y-115490095D02*
X51778819Y-115585333D01*
X52112152Y-115775810D02*
X52112152Y-116156762D01*
X51778819Y-115918667D02*
X52635961Y-115918667D01*
X52635961Y-115918667D02*
X52731200Y-115966286D01*
X52731200Y-115966286D02*
X52778819Y-116061524D01*
X52778819Y-116061524D02*
X52778819Y-116156762D01*
X52112152Y-117252001D02*
X53112152Y-117252001D01*
X52159771Y-117252001D02*
X52112152Y-117347239D01*
X52112152Y-117347239D02*
X52112152Y-117537715D01*
X52112152Y-117537715D02*
X52159771Y-117632953D01*
X52159771Y-117632953D02*
X52207390Y-117680572D01*
X52207390Y-117680572D02*
X52302628Y-117728191D01*
X52302628Y-117728191D02*
X52588342Y-117728191D01*
X52588342Y-117728191D02*
X52683580Y-117680572D01*
X52683580Y-117680572D02*
X52731200Y-117632953D01*
X52731200Y-117632953D02*
X52778819Y-117537715D01*
X52778819Y-117537715D02*
X52778819Y-117347239D01*
X52778819Y-117347239D02*
X52731200Y-117252001D01*
X52778819Y-118156763D02*
X52112152Y-118156763D01*
X51778819Y-118156763D02*
X51826438Y-118109144D01*
X51826438Y-118109144D02*
X51874057Y-118156763D01*
X51874057Y-118156763D02*
X51826438Y-118204382D01*
X51826438Y-118204382D02*
X51778819Y-118156763D01*
X51778819Y-118156763D02*
X51874057Y-118156763D01*
X52112152Y-118632953D02*
X52778819Y-118632953D01*
X52207390Y-118632953D02*
X52159771Y-118680572D01*
X52159771Y-118680572D02*
X52112152Y-118775810D01*
X52112152Y-118775810D02*
X52112152Y-118918667D01*
X52112152Y-118918667D02*
X52159771Y-119013905D01*
X52159771Y-119013905D02*
X52255009Y-119061524D01*
X52255009Y-119061524D02*
X52778819Y-119061524D01*
X52731200Y-119490096D02*
X52778819Y-119585334D01*
X52778819Y-119585334D02*
X52778819Y-119775810D01*
X52778819Y-119775810D02*
X52731200Y-119871048D01*
X52731200Y-119871048D02*
X52635961Y-119918667D01*
X52635961Y-119918667D02*
X52588342Y-119918667D01*
X52588342Y-119918667D02*
X52493104Y-119871048D01*
X52493104Y-119871048D02*
X52445485Y-119775810D01*
X52445485Y-119775810D02*
X52445485Y-119632953D01*
X52445485Y-119632953D02*
X52397866Y-119537715D01*
X52397866Y-119537715D02*
X52302628Y-119490096D01*
X52302628Y-119490096D02*
X52255009Y-119490096D01*
X52255009Y-119490096D02*
X52159771Y-119537715D01*
X52159771Y-119537715D02*
X52112152Y-119632953D01*
X52112152Y-119632953D02*
X52112152Y-119775810D01*
X52112152Y-119775810D02*
X52159771Y-119871048D01*
%LPC*%
D12*
X72390000Y-129192000D03*
X72390000Y-126652000D03*
X72390000Y-124112000D03*
X72390000Y-121572000D03*
X72390000Y-119032000D03*
X72390000Y-116492000D03*
X72390000Y-113952000D03*
X72390000Y-111412000D03*
X72390000Y-108872000D03*
X72390000Y-106332000D03*
X72390000Y-103792000D03*
X72390000Y-101252000D03*
X72390000Y-98712000D03*
X72390000Y-96172000D03*
D13*
X72390000Y-93632000D03*
X49500000Y-93632000D03*
D12*
X49500000Y-96172000D03*
X49500000Y-98712000D03*
X49500000Y-101252000D03*
X49500000Y-103792000D03*
X49500000Y-106332000D03*
X49500000Y-108872000D03*
X49500000Y-111412000D03*
X49500000Y-113952000D03*
X49500000Y-116492000D03*
X49500000Y-119032000D03*
X49500000Y-121572000D03*
X49500000Y-124112000D03*
X49500000Y-126652000D03*
X49500000Y-129192000D03*
D13*
X46800000Y-93632000D03*
D12*
X46800000Y-96172000D03*
X46800000Y-98712000D03*
X46800000Y-101252000D03*
X46800000Y-103792000D03*
X46800000Y-106332000D03*
X46800000Y-108872000D03*
X46800000Y-111412000D03*
X46800000Y-113952000D03*
X46800000Y-116492000D03*
X46800000Y-119032000D03*
X46800000Y-121572000D03*
X46800000Y-124112000D03*
X46800000Y-126652000D03*
X46800000Y-129192000D03*
X75000000Y-129192000D03*
X75000000Y-126652000D03*
X75000000Y-124112000D03*
X75000000Y-121572000D03*
X75000000Y-119032000D03*
X75000000Y-116492000D03*
X75000000Y-113952000D03*
X75000000Y-111412000D03*
X75000000Y-108872000D03*
X75000000Y-106332000D03*
X75000000Y-103792000D03*
X75000000Y-101252000D03*
X75000000Y-98712000D03*
X75000000Y-96172000D03*
D13*
X75000000Y-93632000D03*
%LPD*%
M02*
