G04 #@! TF.GenerationSoftware,KiCad,Pcbnew,8.0.8*
G04 #@! TF.CreationDate,2025-03-21T10:39:09+00:00*
G04 #@! TF.ProjectId,ESP8266adapt_PCB01,45535038-3236-4366-9164-6170745f5043,rev?*
G04 #@! TF.SameCoordinates,Original*
G04 #@! TF.FileFunction,Soldermask,Top*
G04 #@! TF.FilePolarity,Negative*
%FSLAX46Y46*%
G04 Gerber Fmt 4.6, Leading zero omitted, Abs format (unit mm)*
G04 Created by KiCad (PCBNEW 8.0.8) date 2025-03-21 10:39:09*
%MOMM*%
%LPD*%
G01*
G04 APERTURE LIST*
%ADD10O,1.700000X1.700000*%
%ADD11R,1.700000X1.700000*%
G04 APERTURE END LIST*
D10*
X72390000Y-129192000D03*
X72390000Y-126652000D03*
X72390000Y-124112000D03*
X72390000Y-121572000D03*
X72390000Y-119032000D03*
X72390000Y-116492000D03*
X72390000Y-113952000D03*
X72390000Y-111412000D03*
X72390000Y-108872000D03*
X72390000Y-106332000D03*
X72390000Y-103792000D03*
X72390000Y-101252000D03*
X72390000Y-98712000D03*
X72390000Y-96172000D03*
D11*
X72390000Y-93632000D03*
X49500000Y-93632000D03*
D10*
X49500000Y-96172000D03*
X49500000Y-98712000D03*
X49500000Y-101252000D03*
X49500000Y-103792000D03*
X49500000Y-106332000D03*
X49500000Y-108872000D03*
X49500000Y-111412000D03*
X49500000Y-113952000D03*
X49500000Y-116492000D03*
X49500000Y-119032000D03*
X49500000Y-121572000D03*
X49500000Y-124112000D03*
X49500000Y-126652000D03*
X49500000Y-129192000D03*
D11*
X46800000Y-93632000D03*
D10*
X46800000Y-96172000D03*
X46800000Y-98712000D03*
X46800000Y-101252000D03*
X46800000Y-103792000D03*
X46800000Y-106332000D03*
X46800000Y-108872000D03*
X46800000Y-111412000D03*
X46800000Y-113952000D03*
X46800000Y-116492000D03*
X46800000Y-119032000D03*
X46800000Y-121572000D03*
X46800000Y-124112000D03*
X46800000Y-126652000D03*
X46800000Y-129192000D03*
X75000000Y-129192000D03*
X75000000Y-126652000D03*
X75000000Y-124112000D03*
X75000000Y-121572000D03*
X75000000Y-119032000D03*
X75000000Y-116492000D03*
X75000000Y-113952000D03*
X75000000Y-111412000D03*
X75000000Y-108872000D03*
X75000000Y-106332000D03*
X75000000Y-103792000D03*
X75000000Y-101252000D03*
X75000000Y-98712000D03*
X75000000Y-96172000D03*
D11*
X75000000Y-93632000D03*
M02*
