M48
; DRILL file {KiCad 8.0.8} date 2025-03-21T10:40:06+0000
; FORMAT={-:-/ absolute / metric / decimal}
; #@! TF.CreationDate,2025-03-21T10:40:06+00:00
; #@! TF.GenerationSoftware,Kicad,Pcbnew,8.0.8
; #@! TF.FileFunction,Plated,1,2,PTH
FMAT,2
METRIC
; #@! TA.AperFunction,Plated,PTH,ComponentDrill
T1C1.000
%
G90
G05
T1
X46.8Y-93.632
X46.8Y-96.172
X46.8Y-98.712
X46.8Y-101.252
X46.8Y-103.792
X46.8Y-106.332
X46.8Y-108.872
X46.8Y-111.412
X46.8Y-113.952
X46.8Y-116.492
X46.8Y-119.032
X46.8Y-121.572
X46.8Y-124.112
X46.8Y-126.652
X46.8Y-129.192
X49.5Y-93.632
X49.5Y-96.172
X49.5Y-98.712
X49.5Y-101.252
X49.5Y-103.792
X49.5Y-106.332
X49.5Y-108.872
X49.5Y-111.412
X49.5Y-113.952
X49.5Y-116.492
X49.5Y-119.032
X49.5Y-121.572
X49.5Y-124.112
X49.5Y-126.652
X49.5Y-129.192
X72.39Y-93.632
X72.39Y-96.172
X72.39Y-98.712
X72.39Y-101.252
X72.39Y-103.792
X72.39Y-106.332
X72.39Y-108.872
X72.39Y-111.412
X72.39Y-113.952
X72.39Y-116.492
X72.39Y-119.032
X72.39Y-121.572
X72.39Y-124.112
X72.39Y-126.652
X72.39Y-129.192
X75.0Y-93.632
X75.0Y-96.172
X75.0Y-98.712
X75.0Y-101.252
X75.0Y-103.792
X75.0Y-106.332
X75.0Y-108.872
X75.0Y-111.412
X75.0Y-113.952
X75.0Y-116.492
X75.0Y-119.032
X75.0Y-121.572
X75.0Y-124.112
X75.0Y-126.652
X75.0Y-129.192
M30
